<svg viewBox="0 0 330 200" xmlns="http://www.w3.org/2000/svg"><g><g><g><g><g><line x1="40" y1="178" x2="35" y2="178" style="visibility: inherit;" fill="rgb(0, 0, 0)" stroke="rgb(204, 204, 204)" stroke-width="1px"></line><line x1="40" y1="158.22222222222223" x2="35" y2="158.22222222222223" style="visibility: inherit;" fill="rgb(0, 0, 0)" stroke="rgb(204, 204, 204)" stroke-width="1px"></line><line x1="40" y1="138.44444444444446" x2="35" y2="138.44444444444446" style="visibility: inherit;" fill="rgb(0, 0, 0)" stroke="rgb(204, 204, 204)" stroke-width="1px"></line><line x1="40" y1="118.66666666666667" x2="35" y2="118.66666666666667" style="visibility: inherit;" fill="rgb(0, 0, 0)" stroke="rgb(204, 204, 204)" stroke-width="1px"></line><line x1="40" y1="98.8888888888889" x2="35" y2="98.8888888888889" style="visibility: inherit;" fill="rgb(0, 0, 0)" stroke="rgb(204, 204, 204)" stroke-width="1px"></line><line x1="40" y1="79.1111111111111" x2="35" y2="79.1111111111111" style="visibility: inherit;" fill="rgb(0, 0, 0)" stroke="rgb(204, 204, 204)" stroke-width="1px"></line><line x1="40" y1="59.33333333333334" x2="35" y2="59.33333333333334" style="visibility: inherit;" fill="rgb(0, 0, 0)" stroke="rgb(204, 204, 204)" stroke-width="1px"></line><line x1="40" y1="39.55555555555554" x2="35" y2="39.55555555555554" style="visibility: inherit;" fill="rgb(0, 0, 0)" stroke="rgb(204, 204, 204)" stroke-width="1px"></line><line x1="40" y1="19.7777777777778" x2="35" y2="19.7777777777778" style="visibility: inherit;" fill="rgb(0, 0, 0)" stroke="rgb(204, 204, 204)" stroke-width="1px"></line><line x1="40" y1="0" x2="35" y2="0" style="visibility: inherit;" fill="rgb(0, 0, 0)" stroke="rgb(204, 204, 204)" stroke-width="1px"></line></g><g transform="translate(30, 0)"><text x="0" y="178" dx="0em" dy="0.3em" style="text-anchor: end; visibility: hidden; font-family: &quot;Helvetica Neue&quot;, sans-serif; font-size: 12px; font-weight: 200;" fill="rgb(50, 49, 63)" stroke="none" stroke-width="1px">2.5</text><text x="0" y="158.22222222222223" dx="0em" dy="0.3em" style="text-anchor: end; visibility: inherit; font-family: &quot;Helvetica Neue&quot;, sans-serif; font-size: 12px; font-weight: 200;" fill="rgb(50, 49, 63)" stroke="none" stroke-width="1px">3</text><text x="0" y="138.44444444444446" dx="0em" dy="0.3em" style="text-anchor: end; visibility: hidden; font-family: &quot;Helvetica Neue&quot;, sans-serif; font-size: 12px; font-weight: 200;" fill="rgb(50, 49, 63)" stroke="none" stroke-width="1px">3.5</text><text x="0" y="118.66666666666667" dx="0em" dy="0.3em" style="text-anchor: end; visibility: inherit; font-family: &quot;Helvetica Neue&quot;, sans-serif; font-size: 12px; font-weight: 200;" fill="rgb(50, 49, 63)" stroke="none" stroke-width="1px">4</text><text x="0" y="98.8888888888889" dx="0em" dy="0.3em" style="text-anchor: end; visibility: hidden; font-family: &quot;Helvetica Neue&quot;, sans-serif; font-size: 12px; font-weight: 200;" fill="rgb(50, 49, 63)" stroke="none" stroke-width="1px">4.5</text><text x="0" y="79.1111111111111" dx="0em" dy="0.3em" style="text-anchor: end; visibility: inherit; font-family: &quot;Helvetica Neue&quot;, sans-serif; font-size: 12px; font-weight: 200;" fill="rgb(50, 49, 63)" stroke="none" stroke-width="1px">5</text><text x="0" y="59.33333333333334" dx="0em" dy="0.3em" style="text-anchor: end; visibility: hidden; font-family: &quot;Helvetica Neue&quot;, sans-serif; font-size: 12px; font-weight: 200;" fill="rgb(50, 49, 63)" stroke="none" stroke-width="1px">5.5</text><text x="0" y="39.55555555555554" dx="0em" dy="0.3em" style="text-anchor: end; visibility: inherit; font-family: &quot;Helvetica Neue&quot;, sans-serif; font-size: 12px; font-weight: 200;" fill="rgb(50, 49, 63)" stroke="none" stroke-width="1px">6</text><text x="0" y="19.7777777777778" dx="0em" dy="0.3em" style="text-anchor: end; visibility: hidden; font-family: &quot;Helvetica Neue&quot;, sans-serif; font-size: 12px; font-weight: 200;" fill="rgb(50, 49, 63)" stroke="none" stroke-width="1px">6.5</text><text x="0" y="0" dx="0em" dy="0.3em" style="text-anchor: end; visibility: hidden; font-family: &quot;Helvetica Neue&quot;, sans-serif; font-size: 12px; font-weight: 200;" fill="rgb(50, 49, 63)" stroke="none" stroke-width="1px">7</text></g><line x1="40" y1="0" x2="40" y2="178" fill="rgb(0, 0, 0)" stroke="rgb(204, 204, 204)" stroke-width="1px"></line></g></g><g transform="translate(40, 0)" clip-path="url(#clip_0)"><clipPath id="clip_0"><rect width="290" height="178"></rect></clipPath><g><g><g><line x1="0" y1="0" x2="0" y2="178" fill="rgb(0, 0, 0)" stroke="rgb(60, 60, 60)" stroke-width="1px" opacity="0.25"></line><line x1="26.363636363636363" y1="0" x2="26.363636363636363" y2="178" fill="rgb(0, 0, 0)" stroke="rgb(60, 60, 60)" stroke-width="1px" opacity="0.25"></line><line x1="52.72727272727273" y1="0" x2="52.72727272727273" y2="178" fill="rgb(0, 0, 0)" stroke="rgb(60, 60, 60)" stroke-width="1px" opacity="0.25"></line><line x1="79.09090909090908" y1="0" x2="79.09090909090908" y2="178" fill="rgb(0, 0, 0)" stroke="rgb(60, 60, 60)" stroke-width="1px" opacity="0.25"></line><line x1="105.45454545454545" y1="0" x2="105.45454545454545" y2="178" fill="rgb(0, 0, 0)" stroke="rgb(60, 60, 60)" stroke-width="1px" opacity="0.25"></line><line x1="131.8181818181818" y1="0" x2="131.8181818181818" y2="178" fill="rgb(0, 0, 0)" stroke="rgb(60, 60, 60)" stroke-width="1px" opacity="0.25"></line><line x1="158.18181818181816" y1="0" x2="158.18181818181816" y2="178" fill="rgb(0, 0, 0)" stroke="rgb(60, 60, 60)" stroke-width="1px" opacity="0.25"></line><line x1="184.54545454545453" y1="0" x2="184.54545454545453" y2="178" fill="rgb(0, 0, 0)" stroke="rgb(60, 60, 60)" stroke-width="1px" opacity="0.25"></line><line x1="210.9090909090909" y1="0" x2="210.9090909090909" y2="178" fill="rgb(0, 0, 0)" stroke="rgb(60, 60, 60)" stroke-width="1px" opacity="0.25"></line><line x1="237.27272727272728" y1="0" x2="237.27272727272728" y2="178" fill="rgb(0, 0, 0)" stroke="rgb(60, 60, 60)" stroke-width="1px" opacity="0.25"></line><line x1="263.6363636363636" y1="0" x2="263.6363636363636" y2="178" fill="rgb(0, 0, 0)" stroke="rgb(60, 60, 60)" stroke-width="1px" opacity="0.25"></line><line x1="290" y1="0" x2="290" y2="178" fill="rgb(0, 0, 0)" stroke="rgb(60, 60, 60)" stroke-width="1px" opacity="0.25"></line></g><g><line x1="0" y1="178" x2="290" y2="178" fill="rgb(0, 0, 0)" stroke="rgb(60, 60, 60)" stroke-width="1px" opacity="0.25"></line><line x1="0" y1="158.22222222222223" x2="290" y2="158.22222222222223" fill="rgb(0, 0, 0)" stroke="rgb(60, 60, 60)" stroke-width="1px" opacity="0.25"></line><line x1="0" y1="138.44444444444446" x2="290" y2="138.44444444444446" fill="rgb(0, 0, 0)" stroke="rgb(60, 60, 60)" stroke-width="1px" opacity="0.25"></line><line x1="0" y1="118.66666666666667" x2="290" y2="118.66666666666667" fill="rgb(0, 0, 0)" stroke="rgb(60, 60, 60)" stroke-width="1px" opacity="0.25"></line><line x1="0" y1="98.8888888888889" x2="290" y2="98.8888888888889" fill="rgb(0, 0, 0)" stroke="rgb(60, 60, 60)" stroke-width="1px" opacity="0.25"></line><line x1="0" y1="79.1111111111111" x2="290" y2="79.1111111111111" fill="rgb(0, 0, 0)" stroke="rgb(60, 60, 60)" stroke-width="1px" opacity="0.25"></line><line x1="0" y1="59.33333333333334" x2="290" y2="59.33333333333334" fill="rgb(0, 0, 0)" stroke="rgb(60, 60, 60)" stroke-width="1px" opacity="0.25"></line><line x1="0" y1="39.55555555555554" x2="290" y2="39.55555555555554" fill="rgb(0, 0, 0)" stroke="rgb(60, 60, 60)" stroke-width="1px" opacity="0.25"></line><line x1="0" y1="19.7777777777778" x2="290" y2="19.7777777777778" fill="rgb(0, 0, 0)" stroke="rgb(60, 60, 60)" stroke-width="1px" opacity="0.25"></line><line x1="0" y1="0" x2="290" y2="0" fill="rgb(0, 0, 0)" stroke="rgb(60, 60, 60)" stroke-width="1px" opacity="0.25"></line></g></g></g><g><g><line x1="0" y1="276.8888888888889" x2="290" y2="276.8888888888889" fill="rgb(0, 0, 0)" stroke="rgb(153, 153, 153)" stroke-width="1.5px"></line></g></g><g><g><line x1="26.363636363636363" y1="0" x2="26.363636363636363" y2="178" fill="rgb(0, 0, 0)" stroke="rgb(153, 153, 153)" stroke-width="1.5px"></line></g></g><g><g><g><g><g><path stroke="rgb(255, 112, 67)" stroke-width="2px" d="M26.363636363636363,160.07759602864584L29,148.13839440875583L31.636363636363633,128.33827347874373L26.363636363636363,144.23616501474694L29,163.2655455281698L31.636363636363633,149.57983331905655L34.27272727272727,132.9368233260696L36.90909090909091,131.97500604992123L39.54545454545454,134.01115457187132L42.18181818181818,140.8475998154022L44.81818181818182,139.63864126604642L47.45454545454545,122.195278867247L50.09090909090909,133.12698071096582L52.72727272727273,124.69504077505081L55.36363636363637,155.5172925089791L58,150.15914471710963L60.63636363636363,142.19232484910358L63.272727272727266,164.40650545252413L65.9090909090909,145.38682464152225L68.54545454545455,164.33518417170944L71.18181818181819,134.14156236076587L73.81818181818181,153.09310413689965L76.45454545454545,105.15177370040348L79.09090909090908,101.4252935584721L81.72727272727272,76.4970260735764L84.36363636363636,124.18611992834258L87,78.63714617140288L89.63636363636364,45.979352880084406L92.27272727272727,51.304846797088786L94.9090909090909,33.75886584208962L97.54545454545455,61.646055609252784L100.18181818181819,41.24218827040423L102.81818181818183,69.46818248771511L105.45454545454545,85.18269589935717L108.0909090909091,101.5144928339328L110.72727272727273,86.95245665516826L113.36363636363637,74.33280949985475L116,81.39885836069907L118.63636363636364,94.26551565747134L121.27272727272727,115.33441606462796L123.9090909090909,87.64579037042111L126.54545454545453,58.49542742816821L129.1818181818182,38.61592549480787L131.8181818181818,63.31252015169491L134.45454545454544,69.7693743082137L137.0909090909091,81.60310984228519L139.72727272727272,108.19110606953338L142.36363636363637,79.59390558443732L145,95.78478645424697L147.63636363636363,84.09324524145863L150.27272727272728,80.83488662511112L152.9090909090909,78.80487789791235L155.54545454545456,83.62828272630466L158.18181818181816,57.260284658541664L160.8181818181818,90.274799996399L163.45454545454544,35.202344054893274L166.0909090909091,69.32295714976767L168.72727272727272,67.54809388350186L171.36363636363637,38.24908236362731L174,23.420980841108644L176.63636363636365,57.24736109784652L179.27272727272728,52.361552272043326L181.90909090909093,49.697908654756986L184.54545454545453,46.0115593204583L187.1818181818182,55.49553820932687L189.8181818181818,62.07179259790517L192.45454545454547,96.96248236484125L195.0909090909091,81.37679921301282L197.72727272727272,76.69295362923455L200.36363636363637,87.98130681160103L203,82.62715129480567L205.63636363636365,79.2538066121156L208.27272727272725,84.0315570216042L210.9090909090909,62.48608415938725L213.54545454545453,78.15928355227298L216.1818181818182,105.46695685011379L218.8181818181818,84.26252647280695L221.45454545454547,77.10657060170175L224.0909090909091,72.46891698056857L226.72727272727275,32.006981308810964L229.36363636363635,25.89691110584323L232,36.235402794148285L234.63636363636363,32.64200037738959L237.27272727272728,34.62109161098235L239.9090909090909,52.5695687069594L242.54545454545453,63.22944653965959L245.1818181818182,76.53483750319572L247.8181818181818,81.40030169557521L250.45454545454547,71.59248695945666L253.09090909090907,44.388382156413996L255.72727272727272,51.55186440398296L258.3636363636364,76.93356250700023" style="fill: none;" fill="none"></path></g></g></g></g><g opacity="0.2"><g><g><g><path stroke="rgb(255, 112, 67)" stroke-width="2px" d="M26.363636363636363,160.07759602864584L29,140.97487343682184L31.636363636363633,109.33015738593207L26.363636363636363,162.9320854610867L29,188.1103047264947L31.636363636363633,130.6475664774577L34.27272727272727,109.13705274793837L36.90909090909091,130.572667227851L39.54545454545454,137.0140781402588L42.18181818181818,150.9989242553711L44.81818181818182,137.83616860707602L47.45454545454545,96.12516127692328L50.09090909090909,149.48883957333035L52.72727272727273,112.06364991929796L55.36363636363637,201.7144397099813L58,142.12570201026068L60.63636363636363,130.2454663382636L63.272727272727266,197.7221361796061L65.9090909090909,116.86020088195801L68.54545454545455,192.75599151187473L71.18181818181819,88.85278553432887L73.81818181818181,181.51979319254556L76.45454545454545,33.24072456359863L79.09090909090908,95.83561748928493L81.72727272727272,39.104802025689L84.36363636363636,195.71955733829074L87,10.313802083333343L89.63636363636364,-3.007286919487825L92.27272727272727,59.29308276706273L94.9090909090909,7.439904106987825L97.54545454545455,103.47683101230199L100.18181818181819,10.636391321818024L102.81818181818183,111.80717044406468L105.45454545454545,108.75446489122179L108.0909090909091,126.01218753390842L110.72727272727273,65.109402762519L113.36363636363637,55.40333896213109L116,91.99793158637152L118.63636363636364,113.56550153096516L121.27272727272727,146.93776660495334L123.9090909090909,46.112851884630004L126.54545454545453,14.769883049858919L129.1818181818182,8.796672609117309L131.8181818181818,100.35741212632921L134.45454545454544,79.45465554131401L137.0909090909091,99.3537131415473L139.72727272727272,148.0731004079183L142.36363636363637,36.69810485839844L145,120.07110775841608L147.63636363636363,66.55593342251247L150.27272727272728,75.94734870062935L152.9090909090909,75.7598648071289L155.54545454545456,90.86338996887207L158.18181818181816,17.708287556966155L160.8181818181818,139.79657300313315L163.45454545454544,-47.406339857313384L166.0909090909091,120.50387679206L168.72727272727272,64.88579898410374L171.36363636363637,-5.699434916178404L174,1.1788285573323662L176.63636363636365,107.98693148295085L179.27272727272728,45.032839033338746L181.90909090909093,45.702443228827605L184.54545454545453,40.48203531901041L187.1818181818182,69.72150654262965L189.8181818181818,71.93617418077257L192.45454545454547,149.29851701524524L195.0909090909091,57.99827448527017L197.72727272727272,69.66718525356715L200.36363636363637,104.91383658515082L203,74.59591801961264L205.63636363636365,74.19378958808052L208.27272727272725,91.19818263583714L210.9090909090909,30.167874866061737L213.54545454545453,101.66908264160156L216.1818181818182,146.428466796875L218.8181818181818,52.45588090684679L221.45454545454547,66.37263679504395L224.0909090909091,65.5124365488688L226.72727272727275,-28.68592219882541L229.36363636363635,16.7318058013916L232,51.74314032660591L234.63636363636363,27.251896752251497L237.27272727272728,37.58972846137155L239.9090909090909,79.49228435092503L242.54545454545453,79.21926328870985L245.1818181818182,96.4929239484999L247.8181818181818,88.69849798414442L250.45454545454547,56.880764855278855L253.09090909090907,3.5822249518500655L255.72727272727272,62.29708777533638L258.3636363636364,115.00610966152615" style="fill: none;" fill="none"></path></g></g></g></g></g></g><g transform="translate(40, 178)" clip-path="url(#clip_1)"><clipPath id="clip_1"><rect width="290" height="22"></rect></clipPath><g><g><line x1="0" y1="0" x2="0" y2="5" style="visibility: inherit;" fill="rgb(0, 0, 0)" stroke="rgb(204, 204, 204)" stroke-width="1px"></line><line x1="26.363636363636363" y1="0" x2="26.363636363636363" y2="5" style="visibility: inherit;" fill="rgb(0, 0, 0)" stroke="rgb(204, 204, 204)" stroke-width="1px"></line><line x1="52.72727272727273" y1="0" x2="52.72727272727273" y2="5" style="visibility: inherit;" fill="rgb(0, 0, 0)" stroke="rgb(204, 204, 204)" stroke-width="1px"></line><line x1="79.09090909090908" y1="0" x2="79.09090909090908" y2="5" style="visibility: inherit;" fill="rgb(0, 0, 0)" stroke="rgb(204, 204, 204)" stroke-width="1px"></line><line x1="105.45454545454545" y1="0" x2="105.45454545454545" y2="5" style="visibility: inherit;" fill="rgb(0, 0, 0)" stroke="rgb(204, 204, 204)" stroke-width="1px"></line><line x1="131.8181818181818" y1="0" x2="131.8181818181818" y2="5" style="visibility: inherit;" fill="rgb(0, 0, 0)" stroke="rgb(204, 204, 204)" stroke-width="1px"></line><line x1="158.18181818181816" y1="0" x2="158.18181818181816" y2="5" style="visibility: inherit;" fill="rgb(0, 0, 0)" stroke="rgb(204, 204, 204)" stroke-width="1px"></line><line x1="184.54545454545453" y1="0" x2="184.54545454545453" y2="5" style="visibility: inherit;" fill="rgb(0, 0, 0)" stroke="rgb(204, 204, 204)" stroke-width="1px"></line><line x1="210.9090909090909" y1="0" x2="210.9090909090909" y2="5" style="visibility: inherit;" fill="rgb(0, 0, 0)" stroke="rgb(204, 204, 204)" stroke-width="1px"></line><line x1="237.27272727272728" y1="0" x2="237.27272727272728" y2="5" style="visibility: inherit;" fill="rgb(0, 0, 0)" stroke="rgb(204, 204, 204)" stroke-width="1px"></line><line x1="263.6363636363636" y1="0" x2="263.6363636363636" y2="5" style="visibility: inherit;" fill="rgb(0, 0, 0)" stroke="rgb(204, 204, 204)" stroke-width="1px"></line><line x1="290" y1="0" x2="290" y2="5" style="visibility: inherit;" fill="rgb(0, 0, 0)" stroke="rgb(204, 204, 204)" stroke-width="1px"></line></g><g transform="translate(0, 8)"><text x="0" y="0" dx="0em" dy="0.95em" style="text-anchor: middle; visibility: hidden; font-family: &quot;Helvetica Neue&quot;, sans-serif; font-size: 12px; font-weight: 200;" fill="rgb(50, 49, 63)" stroke="none" stroke-width="1px">-10</text><text x="26.363636363636363" y="0" dx="0em" dy="0.95em" style="text-anchor: middle; visibility: inherit; font-family: &quot;Helvetica Neue&quot;, sans-serif; font-size: 12px; font-weight: 200;" fill="rgb(50, 49, 63)" stroke="none" stroke-width="1px">0</text><text x="52.72727272727273" y="0" dx="0em" dy="0.95em" style="text-anchor: middle; visibility: inherit; font-family: &quot;Helvetica Neue&quot;, sans-serif; font-size: 12px; font-weight: 200;" fill="rgb(50, 49, 63)" stroke="none" stroke-width="1px">10</text><text x="79.09090909090908" y="0" dx="0em" dy="0.95em" style="text-anchor: middle; visibility: inherit; font-family: &quot;Helvetica Neue&quot;, sans-serif; font-size: 12px; font-weight: 200;" fill="rgb(50, 49, 63)" stroke="none" stroke-width="1px">20</text><text x="105.45454545454545" y="0" dx="0em" dy="0.95em" style="text-anchor: middle; visibility: inherit; font-family: &quot;Helvetica Neue&quot;, sans-serif; font-size: 12px; font-weight: 200;" fill="rgb(50, 49, 63)" stroke="none" stroke-width="1px">30</text><text x="131.8181818181818" y="0" dx="0em" dy="0.95em" style="text-anchor: middle; visibility: inherit; font-family: &quot;Helvetica Neue&quot;, sans-serif; font-size: 12px; font-weight: 200;" fill="rgb(50, 49, 63)" stroke="none" stroke-width="1px">40</text><text x="158.18181818181816" y="0" dx="0em" dy="0.95em" style="text-anchor: middle; visibility: inherit; font-family: &quot;Helvetica Neue&quot;, sans-serif; font-size: 12px; font-weight: 200;" fill="rgb(50, 49, 63)" stroke="none" stroke-width="1px">50</text><text x="184.54545454545453" y="0" dx="0em" dy="0.95em" style="text-anchor: middle; visibility: inherit; font-family: &quot;Helvetica Neue&quot;, sans-serif; font-size: 12px; font-weight: 200;" fill="rgb(50, 49, 63)" stroke="none" stroke-width="1px">60</text><text x="210.9090909090909" y="0" dx="0em" dy="0.95em" style="text-anchor: middle; visibility: inherit; font-family: &quot;Helvetica Neue&quot;, sans-serif; font-size: 12px; font-weight: 200;" fill="rgb(50, 49, 63)" stroke="none" stroke-width="1px">70</text><text x="237.27272727272728" y="0" dx="0em" dy="0.95em" style="text-anchor: middle; visibility: inherit; font-family: &quot;Helvetica Neue&quot;, sans-serif; font-size: 12px; font-weight: 200;" fill="rgb(50, 49, 63)" stroke="none" stroke-width="1px">80</text><text x="263.6363636363636" y="0" dx="0em" dy="0.95em" style="text-anchor: middle; visibility: inherit; font-family: &quot;Helvetica Neue&quot;, sans-serif; font-size: 12px; font-weight: 200;" fill="rgb(50, 49, 63)" stroke="none" stroke-width="1px">90</text><text x="290" y="0" dx="0em" dy="0.95em" style="text-anchor: middle; visibility: hidden; font-family: &quot;Helvetica Neue&quot;, sans-serif; font-size: 12px; font-weight: 200;" fill="rgb(50, 49, 63)" stroke="none" stroke-width="1px">100</text></g><line x1="0" y1="0" x2="290" y2="0" fill="rgb(0, 0, 0)" stroke="rgb(204, 204, 204)" stroke-width="1px"></line></g></g></g></g></svg>