<svg viewBox="0 0 330 200" xmlns="http://www.w3.org/2000/svg"><g><g><g><g><g><line x1="60" y1="178" x2="55" y2="178" style="visibility: inherit;" fill="rgb(0, 0, 0)" stroke="rgb(204, 204, 204)" stroke-width="1px"></line><line x1="60" y1="158.22222222222223" x2="55" y2="158.22222222222223" style="visibility: inherit;" fill="rgb(0, 0, 0)" stroke="rgb(204, 204, 204)" stroke-width="1px"></line><line x1="60" y1="138.44444444444446" x2="55" y2="138.44444444444446" style="visibility: inherit;" fill="rgb(0, 0, 0)" stroke="rgb(204, 204, 204)" stroke-width="1px"></line><line x1="60" y1="118.66666666666666" x2="55" y2="118.66666666666666" style="visibility: inherit;" fill="rgb(0, 0, 0)" stroke="rgb(204, 204, 204)" stroke-width="1px"></line><line x1="60" y1="98.88888888888889" x2="55" y2="98.88888888888889" style="visibility: inherit;" fill="rgb(0, 0, 0)" stroke="rgb(204, 204, 204)" stroke-width="1px"></line><line x1="60" y1="79.1111111111111" x2="55" y2="79.1111111111111" style="visibility: inherit;" fill="rgb(0, 0, 0)" stroke="rgb(204, 204, 204)" stroke-width="1px"></line><line x1="60" y1="59.33333333333334" x2="55" y2="59.33333333333334" style="visibility: inherit;" fill="rgb(0, 0, 0)" stroke="rgb(204, 204, 204)" stroke-width="1px"></line><line x1="60" y1="39.55555555555557" x2="55" y2="39.55555555555557" style="visibility: inherit;" fill="rgb(0, 0, 0)" stroke="rgb(204, 204, 204)" stroke-width="1px"></line><line x1="60" y1="19.7777777777778" x2="55" y2="19.7777777777778" style="visibility: inherit;" fill="rgb(0, 0, 0)" stroke="rgb(204, 204, 204)" stroke-width="1px"></line><line x1="60" y1="0" x2="55" y2="0" style="visibility: inherit;" fill="rgb(0, 0, 0)" stroke="rgb(204, 204, 204)" stroke-width="1px"></line></g><g transform="translate(50, 0)"><text x="0" y="178" dx="0em" dy="0.3em" style="text-anchor: end; visibility: hidden; font-family: &quot;Helvetica Neue&quot;, sans-serif; font-size: 12px; font-weight: 200;" fill="rgb(50, 49, 63)" stroke="none" stroke-width="1px">-0.05</text><text x="0" y="158.22222222222223" dx="0em" dy="0.3em" style="text-anchor: end; visibility: inherit; font-family: &quot;Helvetica Neue&quot;, sans-serif; font-size: 12px; font-weight: 200;" fill="rgb(50, 49, 63)" stroke="none" stroke-width="1px">0</text><text x="0" y="138.44444444444446" dx="0em" dy="0.3em" style="text-anchor: end; visibility: hidden; font-family: &quot;Helvetica Neue&quot;, sans-serif; font-size: 12px; font-weight: 200;" fill="rgb(50, 49, 63)" stroke="none" stroke-width="1px">0.05</text><text x="0" y="118.66666666666666" dx="0em" dy="0.3em" style="text-anchor: end; visibility: inherit; font-family: &quot;Helvetica Neue&quot;, sans-serif; font-size: 12px; font-weight: 200;" fill="rgb(50, 49, 63)" stroke="none" stroke-width="1px">0.1</text><text x="0" y="98.88888888888889" dx="0em" dy="0.3em" style="text-anchor: end; visibility: hidden; font-family: &quot;Helvetica Neue&quot;, sans-serif; font-size: 12px; font-weight: 200;" fill="rgb(50, 49, 63)" stroke="none" stroke-width="1px">0.15</text><text x="0" y="79.1111111111111" dx="0em" dy="0.3em" style="text-anchor: end; visibility: inherit; font-family: &quot;Helvetica Neue&quot;, sans-serif; font-size: 12px; font-weight: 200;" fill="rgb(50, 49, 63)" stroke="none" stroke-width="1px">0.2</text><text x="0" y="59.33333333333334" dx="0em" dy="0.3em" style="text-anchor: end; visibility: hidden; font-family: &quot;Helvetica Neue&quot;, sans-serif; font-size: 12px; font-weight: 200;" fill="rgb(50, 49, 63)" stroke="none" stroke-width="1px">0.25</text><text x="0" y="39.55555555555557" dx="0em" dy="0.3em" style="text-anchor: end; visibility: inherit; font-family: &quot;Helvetica Neue&quot;, sans-serif; font-size: 12px; font-weight: 200;" fill="rgb(50, 49, 63)" stroke="none" stroke-width="1px">0.3</text><text x="0" y="19.7777777777778" dx="0em" dy="0.3em" style="text-anchor: end; visibility: hidden; font-family: &quot;Helvetica Neue&quot;, sans-serif; font-size: 12px; font-weight: 200;" fill="rgb(50, 49, 63)" stroke="none" stroke-width="1px">0.35</text><text x="0" y="0" dx="0em" dy="0.3em" style="text-anchor: end; visibility: hidden; font-family: &quot;Helvetica Neue&quot;, sans-serif; font-size: 12px; font-weight: 200;" fill="rgb(50, 49, 63)" stroke="none" stroke-width="1px">0.4</text></g><line x1="60" y1="0" x2="60" y2="178" fill="rgb(0, 0, 0)" stroke="rgb(204, 204, 204)" stroke-width="1px"></line></g></g><g transform="translate(60, 0)" clip-path="url(#clip_0)"><clipPath id="clip_0"><rect width="270" height="178"></rect></clipPath><g><g><g><line x1="0" y1="0" x2="0" y2="178" fill="rgb(0, 0, 0)" stroke="rgb(60, 60, 60)" stroke-width="1px" opacity="0.25"></line><line x1="33.75" y1="0" x2="33.75" y2="178" fill="rgb(0, 0, 0)" stroke="rgb(60, 60, 60)" stroke-width="1px" opacity="0.25"></line><line x1="67.5" y1="0" x2="67.5" y2="178" fill="rgb(0, 0, 0)" stroke="rgb(60, 60, 60)" stroke-width="1px" opacity="0.25"></line><line x1="101.25" y1="0" x2="101.25" y2="178" fill="rgb(0, 0, 0)" stroke="rgb(60, 60, 60)" stroke-width="1px" opacity="0.25"></line><line x1="135" y1="0" x2="135" y2="178" fill="rgb(0, 0, 0)" stroke="rgb(60, 60, 60)" stroke-width="1px" opacity="0.25"></line><line x1="168.75" y1="0" x2="168.75" y2="178" fill="rgb(0, 0, 0)" stroke="rgb(60, 60, 60)" stroke-width="1px" opacity="0.25"></line><line x1="202.5" y1="0" x2="202.5" y2="178" fill="rgb(0, 0, 0)" stroke="rgb(60, 60, 60)" stroke-width="1px" opacity="0.25"></line><line x1="236.25" y1="0" x2="236.25" y2="178" fill="rgb(0, 0, 0)" stroke="rgb(60, 60, 60)" stroke-width="1px" opacity="0.25"></line><line x1="270" y1="0" x2="270" y2="178" fill="rgb(0, 0, 0)" stroke="rgb(60, 60, 60)" stroke-width="1px" opacity="0.25"></line></g><g><line x1="0" y1="178" x2="270" y2="178" fill="rgb(0, 0, 0)" stroke="rgb(60, 60, 60)" stroke-width="1px" opacity="0.25"></line><line x1="0" y1="158.22222222222223" x2="270" y2="158.22222222222223" fill="rgb(0, 0, 0)" stroke="rgb(60, 60, 60)" stroke-width="1px" opacity="0.25"></line><line x1="0" y1="138.44444444444446" x2="270" y2="138.44444444444446" fill="rgb(0, 0, 0)" stroke="rgb(60, 60, 60)" stroke-width="1px" opacity="0.25"></line><line x1="0" y1="118.66666666666666" x2="270" y2="118.66666666666666" fill="rgb(0, 0, 0)" stroke="rgb(60, 60, 60)" stroke-width="1px" opacity="0.25"></line><line x1="0" y1="98.88888888888889" x2="270" y2="98.88888888888889" fill="rgb(0, 0, 0)" stroke="rgb(60, 60, 60)" stroke-width="1px" opacity="0.25"></line><line x1="0" y1="79.1111111111111" x2="270" y2="79.1111111111111" fill="rgb(0, 0, 0)" stroke="rgb(60, 60, 60)" stroke-width="1px" opacity="0.25"></line><line x1="0" y1="59.33333333333334" x2="270" y2="59.33333333333334" fill="rgb(0, 0, 0)" stroke="rgb(60, 60, 60)" stroke-width="1px" opacity="0.25"></line><line x1="0" y1="39.55555555555557" x2="270" y2="39.55555555555557" fill="rgb(0, 0, 0)" stroke="rgb(60, 60, 60)" stroke-width="1px" opacity="0.25"></line><line x1="0" y1="19.7777777777778" x2="270" y2="19.7777777777778" fill="rgb(0, 0, 0)" stroke="rgb(60, 60, 60)" stroke-width="1px" opacity="0.25"></line><line x1="0" y1="0" x2="270" y2="0" fill="rgb(0, 0, 0)" stroke="rgb(60, 60, 60)" stroke-width="1px" opacity="0.25"></line></g></g></g><g><g><line x1="0" y1="158.22222222222223" x2="270" y2="158.22222222222223" fill="rgb(0, 0, 0)" stroke="rgb(153, 153, 153)" stroke-width="1.5px"></line></g></g><g><g><line x1="33.75" y1="0" x2="33.75" y2="178" fill="rgb(0, 0, 0)" stroke="rgb(153, 153, 153)" stroke-width="1.5px"></line></g></g><g><g><g><g><g><path stroke="rgb(255, 112, 67)" stroke-width="2px" d="M33.75,101.0826331641939L34.425,77.15947571893534L35.1,112.21133051086176L35.775,108.26866805451175L36.45,89.56580368609755L37.125,86.75068450314444L37.800000000000004,101.09919543873866L38.474999999999994,108.88664783552599L39.15,76.22323169008747L39.824999999999996,71.8212812139368L33.75,-9.322097960111762L34.425,-8.22117834865628L35.1,49.59081545217896L35.775,62.03966676344393L36.45,21.605764677118515L37.125,24.435054423394433L37.800000000000004,-102.70686087173249L41.85,-14.960676246158073L42.525,29.94815959800144L43.2,-18.75114774267911L43.875,-3.8249297662720494L44.550000000000004,10.745244634050152L45.225,18.768864794982704L45.900000000000006,36.16121065895845L46.574999999999996,75.10610448436076L47.25,100.67544849133067L47.925,114.42869893146387L33.75,104.49135495714519L34.425,64.93443709355248L35.1,81.43172372705182L35.775,96.67383332869908L36.45,72.23667468364975L37.125,93.66603949849618L37.800000000000004,105.42468372200587L38.474999999999994,78.42144047580025L39.15,65.20527929614072L39.824999999999996,73.92207757452108L40.5,43.23418931496906L41.175,52.85192997290744L41.85,62.766513040901955L42.525,78.98677970809744L43.2,60.22009587786374L43.875,53.21272105924186L44.550000000000004,68.7934299541076L45.225,82.30457771956607L45.900000000000006,84.6164296986488L46.574999999999996,107.11109509670953L47.25,113.08486262391257L47.925,104.21550197790609L48.6,116.28388552303207L49.275,111.96639569064865L49.95,92.80262974841163L50.625,100.46296189062228L51.3,115.88905794388305L51.975,124.55388903796468L52.65,101.70249884500578L53.325,97.07036243714899L54,108.65722726288257L54.675000000000004,117.15329323247104L55.349999999999994,121.64877991034939L56.025,112.04669586644513L56.699999999999996,117.9304114596271L57.375,117.83607873748414L58.05,93.78994356054469L58.725,85.04104396378041L59.4,98.8882649620873L60.075,104.54572219136371L60.75,107.29442980709811L61.425000000000004,118.04088828127138L62.1,123.25684541493322L62.775000000000006,129.69739421358835L63.449999999999996,97.99285308080263L64.125,107.0150593890191L64.8,102.39893794961088L65.475,113.81484769726184L66.15,126.63335306280155L66.825,116.82447577946697L67.5,107.38500460313415L68.175,108.65336792663726L68.85,117.89986638821756L69.525,123.91888947843071L70.2,129.2815743022674L70.875,126.18341702091445L71.55,123.95151175181715L72.22500000000001,130.47127750852758L72.9,136.03135250147946L73.575,135.9076294470038L74.25,132.84353088083435L74.92500000000001,132.34941165492478L75.60000000000001,125.0448442853887L76.27499999999999,125.04097268195014L76.94999999999999,123.30907307922811L77.625,122.96899573123436L78.3,129.44428052573988L78.975,131.642405218963L79.64999999999999,137.29153554331975L80.325,140.45575073177648L81,140.73808769605907L81.675,128.23775945637038L82.35,134.75099921411984L83.025,128.813745801767L83.7,133.81252734436475L84.375,127.6630095992916L85.05,132.59664562536543L85.725,137.56028786019442L86.4,139.15008329579805L87.075,140.75711452634215L87.75,140.8343837917114L88.425,132.6814106434079L89.10000000000001,134.56211107019206L89.775,132.99691448568805L90.45,138.14259313585728L91.125,132.9744233975022L91.80000000000001,137.5152172261005L92.47500000000001,131.53495686664667L93.14999999999999,137.26541856443245L93.82499999999999,140.7036955831039L94.5,129.36869661475748L33.75,119.21191118835725L34.425,127.77867016534927L35.1,93.84584671395906L35.775,81.81491241934629L36.45,105.39562563813037L37.125,-28.51933195693843L37.800000000000004,-62.97853028412129L38.474999999999994,11.774858776252046L39.15,65.40935971019564L39.824999999999996,49.96829312053066L40.5,-57.79328310154503L41.175,-87.6485782576691L41.85,5.420911525237443L42.525,20.301777660246103L43.2,36.753715714783056L43.875,47.86125607813298L44.550000000000004,28.080679644295998L45.225,52.15610360982318L45.900000000000006,66.63433742453039L46.574999999999996,56.039073244309705L47.25,88.30334688161389L47.925,84.05406273763126L48.6,81.75144192394066L49.275,85.49134375476046L49.95,54.60499471585541L50.625,91.10744127395769L51.3,36.097734858504396L51.975,67.12686625912474L52.65,77.98976535674745L53.325,77.00689242395515L54,64.17154687710257L54.675000000000004,89.12472308914457L55.349999999999994,73.58699311624987L56.025,86.3825576333862L56.699999999999996,100.41542586391472L57.375,84.45419383469404L58.05,102.773883837997L58.725,81.44020212006912L59.4,78.65089268605651L60.075,86.73919632440582L60.75,98.00015023393897L61.425000000000004,62.68831464674156L62.1,68.14797230113527L62.775000000000006,88.97076454688498L63.449999999999996,51.35881058266726L64.125,62.947124787846334L64.8,95.10965808882396L65.475,95.00253261320242L66.15,100.67254840448966L66.825,97.59922916891789L67.5,110.05899261953004L68.175,110.96242503304886L68.85,110.28062277357874L69.525,117.75252071744197L70.2,101.10524742175072L70.875,108.98330159407216L71.55,96.55317697445037L72.22500000000001,112.19519618993026L72.9,119.03317897227421L73.575,127.35427018957876L74.25,126.41912839718518L74.92500000000001,119.46589054873965L75.60000000000001,88.7961149850835L76.27499999999999,87.77815375959972L76.94999999999999,111.01133670020427L77.625,113.74165001609254L78.3,124.20629773132335L78.975,123.49843493986857L79.64999999999999,122.36859439677568L80.325,131.2873261808019L81,129.6962420301169L81.675,131.30006884872097L82.35,115.21659199002889L83.025,107.14290779725152L83.7,113.08149909513455L84.375,126.15754819965055L85.05,133.88586230377436L85.725,138.08819086134483L86.4,132.12347095080247L87.075,132.98651544902873L87.75,127.64865395353063L88.425,125.1678408174597L89.10000000000001,124.01444738772143L89.775,124.1636722134217L90.45,117.63016645921587L91.125,123.98971388030046L91.80000000000001,129.99552510817313L92.47500000000001,130.532474875288L93.14999999999999,135.1435356668983L93.82499999999999,131.37109372080158L94.5,133.53234510524214L95.175,134.35603153979002L95.85,133.2487084511101L96.52499999999999,137.86354699392197L97.2,131.30699017573178L97.875,128.44376311458416L98.55,126.65052917786136L99.225,129.18019149084174L99.9,135.48597433594435L100.575,139.63602904601106L101.25,142.12606187205108L101.925,137.6767466570704L102.6,139.21444156800322L103.275,140.7423424371822L103.95,139.3569389478279L104.625,139.80868836948088L105.3,138.60189245964375L105.97500000000001,133.17507427098192L106.65,138.24948900703362L107.325,128.67267003315948L108,130.76194598404854L108.67500000000001,128.8995973819856L109.35000000000001,132.186722905035L110.02499999999999,137.65647818746544L110.69999999999999,138.36903222860323L111.375,129.33779592789068L112.05,131.06014636840536L112.725,132.17758016134303L113.39999999999999,136.5700613678197L114.075,136.8064435229454L114.75,137.29261532592628L115.425,140.32852902181327L116.1,139.61225451595678L116.775,139.63458133412985L117.45,132.90609127287223L118.125,138.08695631559516L118.8,140.90326264303422L119.475,137.36669654926555L120.15,138.75774400997696L120.825,137.18545310637478L121.5,140.45966455172837L122.175,138.33219747773944L122.85000000000001,126.64555616199257L123.525,134.33177814163997L124.2,133.04299215707786L124.875,136.15130792598092L125.55000000000001,138.55426381751L126.22500000000001,136.299198370852L126.89999999999999,136.9543799079194L127.57499999999999,140.08434638348294L128.25,137.1170883183371L128.92499999999998,130.6431253674442L129.6,127.55443423923737L130.275,133.1042622893598L130.95,126.8391733959378L131.625,133.66469278571043L132.3,137.96860147034678L132.975,140.0109473285675L133.65,142.35101284158495L134.325,143.7550521493954L135,142.89271972582753L135.67499999999998,140.74851260188828L136.35,142.7935520055774L137.02499999999998,143.4667920323607L137.7,143.54796703571458L138.375,143.31109978704282L139.05,143.07742130593303L139.725,143.6646544353979L140.4,144.5432371056832L141.075,139.36541474534943L141.75,141.96369329165412L142.42499999999998,136.84876429215996L143.1,136.60598276759742L143.775,140.3080341050029L144.45000000000002,141.06367110584182L145.125,138.13114358343415L145.8,137.33567139587112L146.475,140.3189766113836L147.15,140.3222614589261L147.825,139.84960481965769L148.5,140.27900133199034L149.175,137.68732199999945L149.85000000000002,139.95080807831505L150.525,142.3149292914335L151.20000000000002,143.73340201930455L151.875,143.87308896184382L152.54999999999998,142.8251463051662L153.225,143.53582251392618L153.89999999999998,144.26932801200638L154.575,140.90534196995577L155.25,137.8861843323217L155.925,136.1907791070114L156.6,138.1966324140478L157.275,137.80480193435244L157.95,137.69245584941694L158.625,139.9967801618782L159.29999999999998,140.6450512411453L159.975,142.22296167228168L160.65,143.67822144781346L161.32500000000002,144.26587991925953L162,143.27866657781328L162.675,142.89571012647252L163.35,143.97179800028385L164.025,135.23132965021202L164.7,139.38877883320106L165.375,141.97771174436508L166.05,143.37840131953774L166.72500000000002,138.64963807286074L167.4,141.5342272881609L168.07500000000002,143.26498081734098L168.75,141.39451258053572L169.42499999999998,143.17733370597608L170.1,138.26459381714068L170.77499999999998,141.30320073472885L171.45,140.97230474006258L172.125,142.927827288482L172.8,144.10114081753363L173.475,143.1772927207931L174.15,141.4419001703041L174.825,143.2095845466269L175.5,141.50827355470074L176.17499999999998,143.2494085772649L176.85,143.74142588042113L177.525,144.58929997269712L178.20000000000002,145.09802442806273L178.875,138.40343641847755L179.55,141.2310151421318L180.225,140.765733037191L180.9,136.6103118780041L181.575,140.31063157124692L182.25,142.53082338719258L182.925,143.86293847676L183.60000000000002,136.07100331110618L184.275,139.8025255705951L184.95000000000002,142.2259597868015L185.625,141.54160819194453L186.29999999999998,141.73979589122908L186.975,142.4219205478863L187.64999999999998,143.2590438663981L188.325,143.26874353660605L189,137.75896142559657L189.675,140.9998212998024L190.35,142.5617063396785L191.025,142.5686365682716L191.7,141.4205314746798L192.375,138.94718224394128L193.04999999999998,141.04108248637135L193.725,142.96909393626726L194.4,139.07111034911506L195.07500000000002,128.89767313738312L195.75,132.1062095288812L196.425,137.60817016177316L197.1,140.10384481556974L197.775,141.27393378063698L198.45,138.7576010857701L199.125,140.84688275994273L199.8,136.54461343121045L200.47500000000002,140.27121250317072L201.15,139.47626033516073L201.82500000000002,139.28287080117207L202.5,138.88378461645263L203.17499999999998,141.67471521431602L203.85,142.40776409441204L204.52499999999998,143.78910290109167L205.2,144.61790618509946L205.875,144.6448050478419L206.55,144.21393485502324L207.225,144.54455116770222L207.9,144.3799709283206L208.575,144.92240379006358L209.25,142.5731294444907L209.92499999999998,143.88832211113885L210.6,144.67743771112777L211.275,140.8612911486171L211.95000000000002,141.96281892625413L212.625,141.27507579267774L213.3,139.2940465102373L213.975,140.344186325921L214.65,141.18654821716947L215.325,143.05637337474613L216,139.60218319321825L216.675,142.10575436037539L217.35000000000002,143.60789706066967L218.025,143.97969864726167L218.70000000000002,144.24829843460248L219.375,144.72485186084677L220.04999999999998,143.11812788169988L220.725,142.14200087738877L221.39999999999998,142.92060715037957L222.075,142.00928686374118L222.75,142.14189275160314L223.425,143.62958009540634L224.1,143.96738093130878L224.775,144.1445977391785L225.45,144.2975924989771L226.125,140.27739803546484L226.79999999999998,142.51088326572335L227.475,141.205508764976L228.15,143.06774970343002L228.82500000000002,144.18509426650246L229.5,144.8555010043459L230.175,145.257745047052L230.85,145.49909147267564L231.525,144.41982130196703L232.2,144.99633722562467L232.875,144.7369716985556L233.55,145.1866274635778L234.22500000000002,145.38486724195928L234.9,143.65177579845485L235.57500000000002,141.2271182597541" style="fill: none;" fill="none"></path></g></g></g></g><g opacity="0.2"><g><g><g><path stroke="rgb(255, 112, 67)" stroke-width="2px" d="M33.75,101.0826331641939L34.425,62.80558125178021L35.1,145.86111111111111L35.775,103.63209700584413L36.45,65.147343966696L37.125,82.85636123021445L37.800000000000004,121.61779565281338L38.474999999999994,120.24082818958496L39.15,28.05103741751779L39.824999999999996,65.2848977777693L33.75,-130.30120224422876L34.425,-6.575790087381961L35.1,136.12003996305995L35.775,80.6885551346673L36.45,-38.997559918297696L37.125,28.67699360847473L37.800000000000004,-293.3659316168891L38.474999999999994,-308.545242521498L39.15,64.06012246343825L39.824999999999996,-27.128452565934936L40.5,25.530791309144774L41.175,-45.239769193861235L41.85,14.07911382781137L42.525,97.3108813762665L43.2,-91.79976261986627L43.875,18.564333544837126L44.550000000000004,32.60046895345053L45.225,30.80428271823459L45.900000000000006,62.2497134341134L46.574999999999996,133.52342369821338L47.25,139.0294560227129L47.925,135.05857185522714L33.75,89.5853401819865L34.425,5.599063131544341L35.1,106.17765296830072L35.775,119.53699733813605L36.45,35.5809370941586L37.125,125.81008652183746L37.800000000000004,123.06264999177722L38.474999999999994,37.916575696733275L39.15,45.38103755315146L39.824999999999996,86.99727498160469L40.5,-2.797643052207121L41.175,67.27854095564949L41.85,77.63838764031729L42.525,103.31717970636156L43.2,32.07007013426889L43.875,42.70165883170236L44.550000000000004,92.16449329588148L45.225,102.57129936748082L45.900000000000006,88.08420766724481L46.574999999999996,140.853093193637L47.25,122.04551391469109L47.925,90.91146100891962L48.6,134.38646084070206L49.275,105.49016094207765L49.95,64.05698083506691L50.625,111.95346010393567L51.3,139.0282020237711L51.975,137.55113567908606L52.65,67.42541355556914L53.325,90.12215782536401L54,126.03752450148265L54.675000000000004,129.8973921868536L55.349999999999994,128.39200992716684L56.025,97.64356980058882L56.699999999999996,126.7559848494L57.375,117.69457965426975L58.05,57.7207407951355L58.725,71.91769456863403L59.4,119.65909645954768L60.075,113.03190803527833L60.75,111.41749123069975L61.425000000000004,134.16057599253125L62.1,131.08078111542596L62.775000000000006,139.35821741157108L63.449999999999996,50.43604138162401L64.125,120.5483688513438L64.8,95.47475579049852L65.475,130.93871231873828L66.15,145.86111111111111L66.825,102.11115985446507L67.5,93.22579783863492L68.175,110.55591291189195L68.85,131.76961408058804L69.525,132.94742411375046L70.2,137.32560153802237L70.875,121.53618109888501L71.55,120.60365384817123L72.22500000000001,140.25092614359326L72.9,144.37146499090724L73.575,135.72204486529031L74.25,128.2473830315802L74.92500000000001,131.60823281606037L75.60000000000001,114.08799323108462L76.27499999999999,125.03516527679233L76.94999999999999,120.71122367514505L77.625,122.45887970924377L78.3,139.15720771749815L78.975,134.93959225879775L79.64999999999999,145.76523102985487L80.325,145.20207351446152L81,141.16159314248296L81.675,109.48726709683737L82.35,144.52085885074405L83.025,119.90786568323772L83.7,141.3106996582614L84.375,118.43873298168182L85.05,139.9970996644762L85.725,145.00575121243796L86.4,141.5347764492035L87.075,143.16766137215825L87.75,140.9502876897653L88.425,120.4519509209527L89.10000000000001,137.38316171036826L89.775,130.64911960893207L90.45,145.86111111111111L91.125,125.22216878996956L91.80000000000001,144.32640796899796L92.47500000000001,122.56456632746591L93.14999999999999,145.86111111111111L93.82499999999999,145.86111111111111L94.5,112.36619816223781L33.75,103.97673304875693L34.425,140.62880863083734L35.1,42.94661153687372L35.775,63.768510977427184L36.45,140.7666954663065L37.125,-229.39176834954156L37.800000000000004,-114.66732777489557L38.474999999999994,123.90494236681198L39.15,145.86111111111111L39.824999999999996,26.80669323603314L40.5,-219.4356474346585L41.175,-132.43152099185522L41.85,145.02514619959726L42.525,42.62307686275906L43.2,61.431622796588485L43.875,64.52256662315794L44.550000000000004,-1.590185006459535L45.225,88.26923955811395L45.900000000000006,88.35168814659119L46.574999999999996,40.1461769739787L47.25,136.6997573375702L47.925,77.68013652165732L48.6,78.29751070340475L49.275,91.10119650099013L49.95,8.275471157497833L50.625,145.86111111111111L51.3,-46.41682476467557L51.975,113.6705633600553L52.65,94.28411400318147L53.325,75.53258302476671L54,44.91852855682373L54.675000000000004,126.55448740720749L55.349999999999994,50.28039815690782L56.025,105.57590440909068L56.699999999999996,121.46472820970749L57.375,60.51234579086304L58.05,130.25341884295148L58.725,49.439679543177306L59.4,74.46692853503758L60.075,98.87165178192987L60.75,114.89158109823863L61.425000000000004,9.720561265945435L62.1,76.33745878272588L62.775000000000006,120.20495291550955L63.449999999999996,-5.059120363659332L64.125,80.32959609561497L64.8,143.3534580402904L65.475,94.84184439977011L66.15,109.1775720914205L66.825,92.98925031556024L67.5,128.7486377954483L68.175,112.3175736533271L68.85,109.25791938437357L69.525,128.96036763323679L70.2,76.13433747821385L70.875,120.80038285255432L71.55,77.90799004501768L72.22500000000001,135.65822501315012L72.9,129.2901531457901L73.575,139.83590701553555L74.25,125.01641570859485L74.92500000000001,109.03603377607133L75.60000000000001,42.79145163959927L76.27499999999999,86.25121192137402L76.94999999999999,145.86111111111111L77.625,117.83711998992496L78.3,139.90326930416956L78.975,122.4366407526864L79.64999999999999,120.67383358213638L80.325,144.6654238568412L81,127.30961580408945L81.675,133.7058090766271L82.35,91.09137670199077L83.025,95.03238150808546L83.7,121.98938604195914L84.375,145.77162185642453L85.05,145.47833345996008L85.725,144.3916836977005L86.4,123.17639108498892L87.075,134.28108219636812L87.75,119.64186171028351L88.425,121.4466211133533L89.10000000000001,122.28435724311404L89.775,124.38750945197212L90.45,107.82990782790715L91.125,133.52903501192728L91.80000000000001,139.00424194998212L92.47500000000001,131.33789952596027L93.14999999999999,142.06012685431375L93.82499999999999,125.71243080165652L94.5,136.77422218190299L95.175,135.59156119161182L95.85,131.58772381809024L96.52499999999999,144.7858048081398L97.2,121.4721549484465L97.875,124.14892252286276L98.55,123.96067827277713L99.225,132.97468496031232L99.9,144.94464860359827L100.575,145.86111111111111L101.25,145.86111111111111L101.925,131.0027738345994L102.6,141.52098393440247L103.275,143.03419374095068L103.95,137.27883371379642L104.625,140.48631250196033L105.3,136.79169859488806L105.97500000000001,125.03484698798923L106.65,145.86111111111111L107.325,114.30744157234828L108,133.89585991038217L108.67500000000001,126.10607447889117L109.35000000000001,137.1174111896091L110.02499999999999,145.86111111111111L110.69999999999999,139.4378632903099L111.375,115.7909414768219L112.05,133.64367202917734L112.725,133.85373085074954L113.39999999999999,143.15878317753473L114.075,137.16101675563388L114.75,138.02187303039761L115.425,144.88239956564374L116.1,138.53784275717206L116.775,139.6680715613895L117.45,122.81335618098578L118.125,145.85825387967958L118.8,145.1277221341928L119.475,132.06184740861255L120.15,140.84431520104408L120.825,134.82701675097147L121.5,145.3709817197588L122.175,135.140996866756L122.85000000000001,109.1155941883723L123.525,145.86111111111111L124.2,131.1098131802347L124.875,140.81378157933554L125.55000000000001,142.1586976548036L126.22500000000001,132.916600200865L126.89999999999999,137.93715221352048L127.57499999999999,144.77929609682826L128.25,132.66620122061835L128.92499999999998,120.93218094110489L129.6,122.92139754692714L130.275,141.4290043645435L130.95,117.44154005580478L131.625,143.90297187036938L132.3,144.4244644973013L132.975,143.07446611589856L133.65,145.86111111111111L134.325,145.86111111111111L135,141.5992210904757L135.67499999999998,137.53220191597939L136.35,145.86111111111111L137.02499999999998,144.47665207253561L137.7,143.6697295407454L138.375,142.95579891403517L139.05,142.72690358426837L139.725,144.54550412959523L140.4,145.86111111111111L141.075,131.59868120484882L141.75,145.86111111111111L142.42499999999998,129.17637079291873L143.1,136.24181048075357L143.775,145.86111111111111L144.45000000000002,142.19712660710016L145.125,133.7323522998227L145.8,136.14246311452655L146.475,144.79393443465233L147.15,140.32718873023987L147.825,139.14061986075507L148.5,140.9230961004893L149.175,133.7998030020131L149.85000000000002,143.34603719578848L150.525,145.86111111111111L151.20000000000002,145.86111111111111L151.875,144.08261937565274L152.54999999999998,141.25323232014975L153.225,144.60183682706622L153.89999999999998,145.36958625912666L154.575,135.85936290687985L155.25,133.3574478758706L155.925,133.64767126904593L156.6,141.20541237460242L157.275,137.21705621480942L157.95,137.52393672201367L158.625,143.45326663057008L159.29999999999998,141.61745786004596L159.975,144.58982731898627L160.65,145.86111111111111L161.32500000000002,145.1473676264286L162,141.79784656564394L162.675,142.3212754494614L163.35,145.58592981100082L164.025,122.12062712510428L164.7,145.62495260768466L165.375,145.86111111111111L166.05,145.47943568229675L166.72500000000002,131.55649320284527L167.4,145.86111111111111L168.07500000000002,145.86111111111111L168.75,138.58881022532782L169.42499999999998,145.85156539413663L170.1,130.89548398388757L170.77499999999998,145.86111111111111L171.45,140.4759607480632L172.125,145.86111111111111L172.8,145.86111111111111L173.475,141.7915205756823L174.15,138.8388113445706L174.825,145.86111111111111L175.5,138.95630706681146L176.17499999999998,145.86111111111111L176.85,144.4794518351555L177.525,145.86111111111111L178.20000000000002,145.86111111111111L178.875,128.3615544040998L179.55,145.47238322761325L180.225,140.06780987977982L180.9,130.37718013922375L181.575,145.86111111111111L182.25,145.86111111111111L182.925,145.86111111111111L183.60000000000002,124.38310056262546L184.275,145.39980895982848L184.95000000000002,145.86111111111111L185.625,140.5150807996591L186.29999999999998,142.03707744015588L186.975,143.4451075328721L187.64999999999998,144.5147288441658L188.325,143.283293041918L189,129.49428825908237L189.675,145.86111111111111L190.35,144.9045338994927L191.025,142.57903191116122L191.7,139.69837383429208L192.375,135.2371583978335L193.04999999999998,144.1819328500165L193.725,145.86111111111111L194.4,133.22413496838675L195.07500000000002,113.63751731978523L195.75,136.9190141161283L196.425,145.86111111111111L197.1,143.84735679626465L197.775,143.02906722823778L198.45,134.98310204346976L199.125,143.98080527120166L199.8,130.09120943811206L200.47500000000002,145.86111111111111L201.15,138.28383208314577L201.82500000000002,138.99278650018903L202.5,138.2851553393735L203.17499999999998,145.86111111111111L203.85,143.50733741455608L204.52499999999998,145.86111111111111L205.2,145.86111111111111L205.875,144.6851533419556L206.55,143.56762956579527L207.225,145.04047563672066L207.9,144.1331005692482L208.575,145.73605308267804L209.25,139.04921792613135L209.92499999999998,145.86111111111111L210.6,145.86111111111111L211.275,135.1370713048511L211.95000000000002,143.61511059270964L212.625,140.24346109231314L213.3,136.32250258657666L213.975,141.91939604944653L214.65,142.4500910540422L215.325,145.86111111111111L216,134.42089792092642L216.675,145.86111111111111L217.35000000000002,145.86111111111111L218.025,144.53740102714963L218.70000000000002,144.65119811561374L219.375,145.4396820002132L220.04999999999998,140.70804191297955L220.725,140.6778103709221L221.39999999999998,144.08851655986575L222.075,140.64230643378363L222.75,142.34080158339606L223.425,145.86111111111111L224.1,144.47408218516244L224.775,144.41042295098305L225.45,144.52708463867506L226.125,134.2471063401964L226.79999999999998,145.86111111111111L227.475,139.24744701385498L228.15,145.86111111111111L228.82500000000002,145.86111111111111L229.5,145.86111111111111L230.175,145.86111111111111L230.85,145.86111111111111L231.525,142.80091604590416L232.2,145.86111111111111L232.875,144.34792340795198L233.55,145.86111111111111L234.22500000000002,145.6822269095315L234.9,141.0521386331982L235.57500000000002,137.59013195170297" style="fill: none;" fill="none"></path></g></g></g></g></g></g><g transform="translate(60, 178)" clip-path="url(#clip_1)"><clipPath id="clip_1"><rect width="270" height="22"></rect></clipPath><g><g><line x1="0" y1="0" x2="0" y2="5" style="visibility: inherit;" fill="rgb(0, 0, 0)" stroke="rgb(204, 204, 204)" stroke-width="1px"></line><line x1="33.75" y1="0" x2="33.75" y2="5" style="visibility: inherit;" fill="rgb(0, 0, 0)" stroke="rgb(204, 204, 204)" stroke-width="1px"></line><line x1="67.5" y1="0" x2="67.5" y2="5" style="visibility: inherit;" fill="rgb(0, 0, 0)" stroke="rgb(204, 204, 204)" stroke-width="1px"></line><line x1="101.25" y1="0" x2="101.25" y2="5" style="visibility: inherit;" fill="rgb(0, 0, 0)" stroke="rgb(204, 204, 204)" stroke-width="1px"></line><line x1="135" y1="0" x2="135" y2="5" style="visibility: inherit;" fill="rgb(0, 0, 0)" stroke="rgb(204, 204, 204)" stroke-width="1px"></line><line x1="168.75" y1="0" x2="168.75" y2="5" style="visibility: inherit;" fill="rgb(0, 0, 0)" stroke="rgb(204, 204, 204)" stroke-width="1px"></line><line x1="202.5" y1="0" x2="202.5" y2="5" style="visibility: inherit;" fill="rgb(0, 0, 0)" stroke="rgb(204, 204, 204)" stroke-width="1px"></line><line x1="236.25" y1="0" x2="236.25" y2="5" style="visibility: inherit;" fill="rgb(0, 0, 0)" stroke="rgb(204, 204, 204)" stroke-width="1px"></line><line x1="270" y1="0" x2="270" y2="5" style="visibility: inherit;" fill="rgb(0, 0, 0)" stroke="rgb(204, 204, 204)" stroke-width="1px"></line></g><g transform="translate(0, 8)"><text x="0" y="0" dx="0em" dy="0.95em" style="text-anchor: middle; visibility: hidden; font-family: &quot;Helvetica Neue&quot;, sans-serif; font-size: 12px; font-weight: 200;" fill="rgb(50, 49, 63)" stroke="none" stroke-width="1px">-50</text><text x="33.75" y="0" dx="0em" dy="0.95em" style="text-anchor: middle; visibility: inherit; font-family: &quot;Helvetica Neue&quot;, sans-serif; font-size: 12px; font-weight: 200;" fill="rgb(50, 49, 63)" stroke="none" stroke-width="1px">0</text><text x="67.5" y="0" dx="0em" dy="0.95em" style="text-anchor: middle; visibility: inherit; font-family: &quot;Helvetica Neue&quot;, sans-serif; font-size: 12px; font-weight: 200;" fill="rgb(50, 49, 63)" stroke="none" stroke-width="1px">50</text><text x="101.25" y="0" dx="0em" dy="0.95em" style="text-anchor: middle; visibility: inherit; font-family: &quot;Helvetica Neue&quot;, sans-serif; font-size: 12px; font-weight: 200;" fill="rgb(50, 49, 63)" stroke="none" stroke-width="1px">100</text><text x="135" y="0" dx="0em" dy="0.95em" style="text-anchor: middle; visibility: inherit; font-family: &quot;Helvetica Neue&quot;, sans-serif; font-size: 12px; font-weight: 200;" fill="rgb(50, 49, 63)" stroke="none" stroke-width="1px">150</text><text x="168.75" y="0" dx="0em" dy="0.95em" style="text-anchor: middle; visibility: inherit; font-family: &quot;Helvetica Neue&quot;, sans-serif; font-size: 12px; font-weight: 200;" fill="rgb(50, 49, 63)" stroke="none" stroke-width="1px">200</text><text x="202.5" y="0" dx="0em" dy="0.95em" style="text-anchor: middle; visibility: inherit; font-family: &quot;Helvetica Neue&quot;, sans-serif; font-size: 12px; font-weight: 200;" fill="rgb(50, 49, 63)" stroke="none" stroke-width="1px">250</text><text x="236.25" y="0" dx="0em" dy="0.95em" style="text-anchor: middle; visibility: inherit; font-family: &quot;Helvetica Neue&quot;, sans-serif; font-size: 12px; font-weight: 200;" fill="rgb(50, 49, 63)" stroke="none" stroke-width="1px">300</text><text x="270" y="0" dx="0em" dy="0.95em" style="text-anchor: middle; visibility: hidden; font-family: &quot;Helvetica Neue&quot;, sans-serif; font-size: 12px; font-weight: 200;" fill="rgb(50, 49, 63)" stroke="none" stroke-width="1px">350</text></g><line x1="0" y1="0" x2="270" y2="0" fill="rgb(0, 0, 0)" stroke="rgb(204, 204, 204)" stroke-width="1px"></line></g></g></g></g></svg>