<svg viewBox="0 0 330 200" xmlns="http://www.w3.org/2000/svg"><g><g><g><g><g><line x1="60" y1="178" x2="55" y2="178" style="visibility: inherit;" fill="rgb(0, 0, 0)" stroke="rgb(204, 204, 204)" stroke-width="1px"></line><line x1="60" y1="163.16666666666666" x2="55" y2="163.16666666666666" style="visibility: inherit;" fill="rgb(0, 0, 0)" stroke="rgb(204, 204, 204)" stroke-width="1px"></line><line x1="60" y1="148.33333333333334" x2="55" y2="148.33333333333334" style="visibility: inherit;" fill="rgb(0, 0, 0)" stroke="rgb(204, 204, 204)" stroke-width="1px"></line><line x1="60" y1="133.5" x2="55" y2="133.5" style="visibility: inherit;" fill="rgb(0, 0, 0)" stroke="rgb(204, 204, 204)" stroke-width="1px"></line><line x1="60" y1="118.66666666666667" x2="55" y2="118.66666666666667" style="visibility: inherit;" fill="rgb(0, 0, 0)" stroke="rgb(204, 204, 204)" stroke-width="1px"></line><line x1="60" y1="103.83333333333334" x2="55" y2="103.83333333333334" style="visibility: inherit;" fill="rgb(0, 0, 0)" stroke="rgb(204, 204, 204)" stroke-width="1px"></line><line x1="60" y1="89.00000000000001" x2="55" y2="89.00000000000001" style="visibility: inherit;" fill="rgb(0, 0, 0)" stroke="rgb(204, 204, 204)" stroke-width="1px"></line><line x1="60" y1="74.16666666666669" x2="55" y2="74.16666666666669" style="visibility: inherit;" fill="rgb(0, 0, 0)" stroke="rgb(204, 204, 204)" stroke-width="1px"></line><line x1="60" y1="59.33333333333336" x2="55" y2="59.33333333333336" style="visibility: inherit;" fill="rgb(0, 0, 0)" stroke="rgb(204, 204, 204)" stroke-width="1px"></line><line x1="60" y1="44.50000000000003" x2="55" y2="44.50000000000003" style="visibility: inherit;" fill="rgb(0, 0, 0)" stroke="rgb(204, 204, 204)" stroke-width="1px"></line><line x1="60" y1="29.666666666666686" x2="55" y2="29.666666666666686" style="visibility: inherit;" fill="rgb(0, 0, 0)" stroke="rgb(204, 204, 204)" stroke-width="1px"></line><line x1="60" y1="14.833333333333343" x2="55" y2="14.833333333333343" style="visibility: inherit;" fill="rgb(0, 0, 0)" stroke="rgb(204, 204, 204)" stroke-width="1px"></line><line x1="60" y1="0" x2="55" y2="0" style="visibility: inherit;" fill="rgb(0, 0, 0)" stroke="rgb(204, 204, 204)" stroke-width="1px"></line></g><g transform="translate(50, 0)"><text x="0" y="178" dx="0em" dy="0.3em" style="text-anchor: end; visibility: hidden; font-family: &quot;Helvetica Neue&quot;, sans-serif; font-size: 12px; font-weight: 200;" fill="rgb(50, 49, 63)" stroke="none" stroke-width="1px">-0.05</text><text x="0" y="163.16666666666666" dx="0em" dy="0.3em" style="text-anchor: end; visibility: inherit; font-family: &quot;Helvetica Neue&quot;, sans-serif; font-size: 12px; font-weight: 200;" fill="rgb(50, 49, 63)" stroke="none" stroke-width="1px">0</text><text x="0" y="148.33333333333334" dx="0em" dy="0.3em" style="text-anchor: end; visibility: hidden; font-family: &quot;Helvetica Neue&quot;, sans-serif; font-size: 12px; font-weight: 200;" fill="rgb(50, 49, 63)" stroke="none" stroke-width="1px">0.05</text><text x="0" y="133.5" dx="0em" dy="0.3em" style="text-anchor: end; visibility: inherit; font-family: &quot;Helvetica Neue&quot;, sans-serif; font-size: 12px; font-weight: 200;" fill="rgb(50, 49, 63)" stroke="none" stroke-width="1px">0.1</text><text x="0" y="118.66666666666667" dx="0em" dy="0.3em" style="text-anchor: end; visibility: hidden; font-family: &quot;Helvetica Neue&quot;, sans-serif; font-size: 12px; font-weight: 200;" fill="rgb(50, 49, 63)" stroke="none" stroke-width="1px">0.15</text><text x="0" y="103.83333333333334" dx="0em" dy="0.3em" style="text-anchor: end; visibility: inherit; font-family: &quot;Helvetica Neue&quot;, sans-serif; font-size: 12px; font-weight: 200;" fill="rgb(50, 49, 63)" stroke="none" stroke-width="1px">0.2</text><text x="0" y="89.00000000000001" dx="0em" dy="0.3em" style="text-anchor: end; visibility: hidden; font-family: &quot;Helvetica Neue&quot;, sans-serif; font-size: 12px; font-weight: 200;" fill="rgb(50, 49, 63)" stroke="none" stroke-width="1px">0.25</text><text x="0" y="74.16666666666669" dx="0em" dy="0.3em" style="text-anchor: end; visibility: inherit; font-family: &quot;Helvetica Neue&quot;, sans-serif; font-size: 12px; font-weight: 200;" fill="rgb(50, 49, 63)" stroke="none" stroke-width="1px">0.3</text><text x="0" y="59.33333333333336" dx="0em" dy="0.3em" style="text-anchor: end; visibility: hidden; font-family: &quot;Helvetica Neue&quot;, sans-serif; font-size: 12px; font-weight: 200;" fill="rgb(50, 49, 63)" stroke="none" stroke-width="1px">0.35</text><text x="0" y="44.50000000000003" dx="0em" dy="0.3em" style="text-anchor: end; visibility: inherit; font-family: &quot;Helvetica Neue&quot;, sans-serif; font-size: 12px; font-weight: 200;" fill="rgb(50, 49, 63)" stroke="none" stroke-width="1px">0.4</text><text x="0" y="29.666666666666686" dx="0em" dy="0.3em" style="text-anchor: end; visibility: hidden; font-family: &quot;Helvetica Neue&quot;, sans-serif; font-size: 12px; font-weight: 200;" fill="rgb(50, 49, 63)" stroke="none" stroke-width="1px">0.45</text><text x="0" y="14.833333333333343" dx="0em" dy="0.3em" style="text-anchor: end; visibility: inherit; font-family: &quot;Helvetica Neue&quot;, sans-serif; font-size: 12px; font-weight: 200;" fill="rgb(50, 49, 63)" stroke="none" stroke-width="1px">0.5</text><text x="0" y="0" dx="0em" dy="0.3em" style="text-anchor: end; visibility: hidden; font-family: &quot;Helvetica Neue&quot;, sans-serif; font-size: 12px; font-weight: 200;" fill="rgb(50, 49, 63)" stroke="none" stroke-width="1px">0.55</text></g><line x1="60" y1="0" x2="60" y2="178" fill="rgb(0, 0, 0)" stroke="rgb(204, 204, 204)" stroke-width="1px"></line></g></g><g transform="translate(60, 0)" clip-path="url(#clip_0)"><clipPath id="clip_0"><rect width="270" height="178"></rect></clipPath><g><g><g><line x1="0" y1="0" x2="0" y2="178" fill="rgb(0, 0, 0)" stroke="rgb(60, 60, 60)" stroke-width="1px" opacity="0.25"></line><line x1="33.75" y1="0" x2="33.75" y2="178" fill="rgb(0, 0, 0)" stroke="rgb(60, 60, 60)" stroke-width="1px" opacity="0.25"></line><line x1="67.5" y1="0" x2="67.5" y2="178" fill="rgb(0, 0, 0)" stroke="rgb(60, 60, 60)" stroke-width="1px" opacity="0.25"></line><line x1="101.25" y1="0" x2="101.25" y2="178" fill="rgb(0, 0, 0)" stroke="rgb(60, 60, 60)" stroke-width="1px" opacity="0.25"></line><line x1="135" y1="0" x2="135" y2="178" fill="rgb(0, 0, 0)" stroke="rgb(60, 60, 60)" stroke-width="1px" opacity="0.25"></line><line x1="168.75" y1="0" x2="168.75" y2="178" fill="rgb(0, 0, 0)" stroke="rgb(60, 60, 60)" stroke-width="1px" opacity="0.25"></line><line x1="202.5" y1="0" x2="202.5" y2="178" fill="rgb(0, 0, 0)" stroke="rgb(60, 60, 60)" stroke-width="1px" opacity="0.25"></line><line x1="236.25" y1="0" x2="236.25" y2="178" fill="rgb(0, 0, 0)" stroke="rgb(60, 60, 60)" stroke-width="1px" opacity="0.25"></line><line x1="270" y1="0" x2="270" y2="178" fill="rgb(0, 0, 0)" stroke="rgb(60, 60, 60)" stroke-width="1px" opacity="0.25"></line></g><g><line x1="0" y1="178" x2="270" y2="178" fill="rgb(0, 0, 0)" stroke="rgb(60, 60, 60)" stroke-width="1px" opacity="0.25"></line><line x1="0" y1="163.16666666666666" x2="270" y2="163.16666666666666" fill="rgb(0, 0, 0)" stroke="rgb(60, 60, 60)" stroke-width="1px" opacity="0.25"></line><line x1="0" y1="148.33333333333334" x2="270" y2="148.33333333333334" fill="rgb(0, 0, 0)" stroke="rgb(60, 60, 60)" stroke-width="1px" opacity="0.25"></line><line x1="0" y1="133.5" x2="270" y2="133.5" fill="rgb(0, 0, 0)" stroke="rgb(60, 60, 60)" stroke-width="1px" opacity="0.25"></line><line x1="0" y1="118.66666666666667" x2="270" y2="118.66666666666667" fill="rgb(0, 0, 0)" stroke="rgb(60, 60, 60)" stroke-width="1px" opacity="0.25"></line><line x1="0" y1="103.83333333333334" x2="270" y2="103.83333333333334" fill="rgb(0, 0, 0)" stroke="rgb(60, 60, 60)" stroke-width="1px" opacity="0.25"></line><line x1="0" y1="89.00000000000001" x2="270" y2="89.00000000000001" fill="rgb(0, 0, 0)" stroke="rgb(60, 60, 60)" stroke-width="1px" opacity="0.25"></line><line x1="0" y1="74.16666666666669" x2="270" y2="74.16666666666669" fill="rgb(0, 0, 0)" stroke="rgb(60, 60, 60)" stroke-width="1px" opacity="0.25"></line><line x1="0" y1="59.33333333333336" x2="270" y2="59.33333333333336" fill="rgb(0, 0, 0)" stroke="rgb(60, 60, 60)" stroke-width="1px" opacity="0.25"></line><line x1="0" y1="44.50000000000003" x2="270" y2="44.50000000000003" fill="rgb(0, 0, 0)" stroke="rgb(60, 60, 60)" stroke-width="1px" opacity="0.25"></line><line x1="0" y1="29.666666666666686" x2="270" y2="29.666666666666686" fill="rgb(0, 0, 0)" stroke="rgb(60, 60, 60)" stroke-width="1px" opacity="0.25"></line><line x1="0" y1="14.833333333333343" x2="270" y2="14.833333333333343" fill="rgb(0, 0, 0)" stroke="rgb(60, 60, 60)" stroke-width="1px" opacity="0.25"></line><line x1="0" y1="0" x2="270" y2="0" fill="rgb(0, 0, 0)" stroke="rgb(60, 60, 60)" stroke-width="1px" opacity="0.25"></line></g></g></g><g><g><line x1="0" y1="163.16666666666666" x2="270" y2="163.16666666666666" fill="rgb(0, 0, 0)" stroke="rgb(153, 153, 153)" stroke-width="1.5px"></line></g></g><g><g><line x1="33.75" y1="0" x2="33.75" y2="178" fill="rgb(0, 0, 0)" stroke="rgb(153, 153, 153)" stroke-width="1.5px"></line></g></g><g><g><g><g><g><path stroke="rgb(255, 112, 67)" stroke-width="2px" d="M33.75,117.47388202945393L34.425,-31.723770627131046L35.775,-20.808161847256855L36.45,17.673858313704756L37.125,48.84398801228505L37.800000000000004,36.488743437288434L38.474999999999994,57.045471778869384L39.15,87.56835331981993L39.824999999999996,37.63553588782494L33.75,46.654194798919065L34.425,62.80542498069704L35.1,25.179279377721315L35.775,60.6518192640832L36.45,69.42687437453793L37.125,69.52988042533468L37.800000000000004,27.637102224494384L38.474999999999994,54.11515984335074L39.15,20.815205407005664L39.824999999999996,21.823508327002003L40.5,16.486230757506092L41.175,29.93851388661625L41.85,28.091841306832038L42.525,25.504493847260903L43.2,63.952015270098556L43.875,77.38587856421661L44.550000000000004,68.31492200609192L45.225,23.899439901600317L45.900000000000006,27.785590545007807L46.574999999999996,37.30788541684137L47.25,61.097650179869206L47.925,12.861057620558114L33.75,23.02718445207708L34.425,41.96682543508075L35.1,51.95620323675345L35.775,43.39864873875493L36.45,30.43783998409299L37.125,8.155144481090275L37.800000000000004,35.15937274048605L38.474999999999994,61.82058620847765L39.15,72.5621928324873L39.824999999999996,87.91884012666699L40.5,68.17506171876747L41.175,86.19759065392645L41.85,103.66811037334425L42.525,87.13405356466544L43.2,100.64069391336781L43.875,116.87815239295108L44.550000000000004,85.70550012306946L45.225,91.41619128221862L45.900000000000006,104.4616967732422L46.574999999999996,94.09089433516301L47.25,101.9408485295427L47.925,106.52626933269498L48.6,86.60437630182922L49.275,95.80942501167657L49.95,65.59767519755597L50.625,92.85880048865512L51.3,94.68475452539002L51.975,104.01327354198745L52.65,126.16744887423214L53.325,122.61646736219538L54,109.72803519897654L54.675000000000004,103.69491749644074L55.349999999999994,80.85564432326822L56.025,86.74845538805248L56.699999999999996,108.40301506680446L57.375,106.22423745569903L58.05,89.52387718385846L58.725,101.00001856104369L59.4,91.76957953224084L60.075,95.59651146878501L60.75,92.70831894804856L61.425000000000004,97.37382178264751L62.1,103.99477470372852L62.775000000000006,109.43096922509712L63.449999999999996,114.35399965051519L64.125,113.11616832973782L64.8,109.5728428222471L65.475,106.34128727462293L66.15,112.45437280702433L66.825,113.31468170305793L67.5,102.4267648940526L68.175,98.44208819976903L68.85,110.71685963458691L69.525,103.08745703848327L70.2,95.26312469096258L70.875,103.38286609243121L71.55,97.79608567629715L72.22500000000001,90.56583104177989L72.9,103.89856688367135L73.575,113.989619572084L74.25,113.81111048804969L74.92500000000001,108.31161272017509L75.60000000000001,112.30765927327684L76.27499999999999,96.66253116424687L76.94999999999999,92.2912543775388L77.625,98.68705831140767L78.3,107.68728938601708L78.975,103.80558190486211L79.64999999999999,100.82018931949962L80.325,104.46271655705469L81,108.1692148471687L81.675,100.29814236311995L82.35,85.55944535503122L83.025,71.58606590451397L83.7,96.86534423205215L84.375,80.63605138404944L85.05,94.48148156053092L85.725,93.47745359448355L86.4,99.58302638833382L87.075,100.59405885878L87.75,96.80390047277686L88.425,96.3987707689147L89.10000000000001,111.06525733240888L89.775,98.01239933670628L90.45,107.78185730438074L91.125,115.121175475482L91.80000000000001,110.17685587459636L92.47500000000001,117.04635183763801L93.14999999999999,111.17877636404216L93.82499999999999,112.53833756874828L94.5,106.27352413752176L33.75,89.7096299720913L34.425,102.07363076168954L35.1,105.76798327659763L35.775,92.85554816660402L36.45,103.42370859585475L37.125,74.27150603812301L37.800000000000004,20.510178085255802L38.474999999999994,10.413942159864234L39.15,-34.37376802266462L39.824999999999996,31.824840600684354L40.5,-2.8295583394795187L42.525,-2.1645381611394896L43.2,20.621549707940744L43.875,53.75924343802026L44.550000000000004,66.77109013559914L45.225,83.50028775073586L45.900000000000006,85.52453381580611L46.574999999999996,63.68205665804447L47.25,58.6003340200037L47.925,64.33460727426112L48.6,54.42156253909688L49.275,76.08711068623636L49.95,74.6559184042218L50.625,77.14121239469068L51.3,76.27598714680842L51.975,90.08139537484271L52.65,29.835453645651484L53.325,66.54186151997146L54,78.78641715790368L54.675000000000004,85.58779981024388L55.349999999999994,82.08418740205362L56.025,86.0924718143884L56.699999999999996,79.94180053248071L57.375,74.195096487447L58.05,97.22576361178024L58.725,101.68130972352822L59.4,77.04581527531465L60.075,53.61364113064798L60.75,80.30096898141818L61.425000000000004,90.01858571567128L62.1,80.38784215091462L62.775000000000006,91.95384763820248L63.449999999999996,71.9335051723914L64.125,89.26200325977385L64.8,84.95958446477799L65.475,86.69774016746848L66.15,91.46704749470335L66.825,105.44835448586176L67.5,100.07287996802667L68.175,109.26078784740332L68.85,94.06329356199323L69.525,109.3360522005905L70.2,60.52195280078746L70.875,86.31168183853445L71.55,85.28878565532099L72.22500000000001,92.18049950541335L72.9,96.61557690188059L73.575,101.22047848632793L74.25,103.42317809540546L74.92500000000001,101.6547246131014L75.60000000000001,104.94542966004478L76.27499999999999,109.53587543397904L76.94999999999999,109.41944843985496L77.625,92.24496592556154L78.3,105.61423863256802L78.975,107.61203812331853L79.64999999999999,108.07538403732121L80.325,93.85276907481277L81,83.4582963176421L81.675,92.45534093307563L82.35,98.04333325501547L83.025,104.21716828510921L83.7,102.37002276598868L84.375,96.4100822163788L85.05,105.54391850748664L85.725,109.12070293656393L86.4,115.73505327362659L87.075,130.50540141021514L87.75,109.9426353440005L88.425,103.74569329015326L89.10000000000001,113.46231099998103L89.775,101.18579002043693L90.45,88.10879314633861L91.125,90.40016059493614L91.80000000000001,96.55004517485058L92.47500000000001,94.142416530347L93.14999999999999,101.93255043436854L93.82499999999999,111.70029225394985L94.5,109.52083221144991L95.175,92.27447657029342L95.85,107.82645967150039L96.52499999999999,111.56966167218073L97.2,109.69971962885015L97.875,109.74246685176662L98.55,119.35357346417251L99.225,106.50484623679566L99.9,114.53828461867005L100.575,117.4789928430404L101.25,115.06886207863207L101.925,111.78624131165654L102.6,119.59064781993257L103.275,120.27960540650065L103.95,115.45821309763855L104.625,117.24786221988202L105.3,111.73973808292867L105.97500000000001,108.10823563101484L106.65,104.88829282539642L107.325,92.82466052145297L108,116.10307483874084L108.67500000000001,103.48990284404549L109.35000000000001,99.28390391072469L110.02499999999999,105.52719122211637L110.69999999999999,107.00067350491189L111.375,104.92764593297821L112.05,104.97126692812392L112.725,112.18297547269314L113.39999999999999,101.14505423407823L114.075,103.50684465548042L114.75,97.64200157471882L115.425,105.78521869112087L116.1,127.07274515944142L116.775,111.49157724092854L117.45,105.15384612864526L118.125,108.77411966156724L118.8,109.67430270094731L119.475,119.03380181816652L120.15,120.04498073912126L120.825,107.24507724517463L121.5,104.91618705555128L122.175,103.43614205974932L122.85000000000001,104.01544589554427L123.525,108.17870266092912L124.2,105.61127078246929L124.875,101.36773161716376L125.55000000000001,106.47295265571543L126.22500000000001,103.56778827414675L126.89999999999999,91.84732943637627L127.57499999999999,108.0254932494767L128.25,106.79240839790151L128.92499999999998,106.4689057654789L129.6,98.42557949940269L130.275,84.90199561389232L130.95,104.11359505736L131.625,107.76257087518674L132.3,109.24766281682196L132.975,109.8572976317283L133.65,119.86458480514744L134.325,120.66193884307738L135,119.8088749350782L135.67499999999998,108.29175915529385L136.35,119.99353973394666L137.02499999999998,107.39481678203364L137.7,106.055658836736L138.375,101.7783583042465L139.05,110.16721865161911L139.725,110.38117025270853L140.4,109.33067375406502L141.075,116.16288406641212L141.75,122.73745739851948L142.42499999999998,113.70604698098435L143.1,110.01757604024849L143.775,111.3743198999288L144.45000000000002,113.25060204795136L145.125,109.14303323903363L145.8,112.23303827014773L146.475,107.28704326371675L147.15,129.63889262489673L147.825,125.50644859122553L148.5,121.74953359632087L149.175,126.5683338399831L149.85000000000002,115.81740488347035L150.525,131.09887889963363L151.20000000000002,121.55870988731766L151.875,123.45287839034309L152.54999999999998,114.21470909590988L153.225,118.54671233063223L153.89999999999998,118.193087155612L154.575,109.98078841069838L155.25,113.83495833933057L155.925,121.24409600571613L156.6,106.14208837633822L157.275,111.58777659904258L157.95,115.19037947121043L158.625,123.459843204793L159.29999999999998,120.08170054338973L159.975,109.90328309128246L160.65,111.3952221861853L161.32500000000002,102.62896243679765L162,112.93949697384184L162.675,115.21842124046253L163.35,122.22634497075101L164.025,118.31915540768001L164.7,118.49731933637436L165.375,127.62645332553373L166.05,112.65384629093639L166.72500000000002,113.0523396574837L167.4,118.50530864656263L168.07500000000002,112.8393141102411L168.75,117.58723880479441L169.42499999999998,113.78820837515418L170.1,123.62667258765991L170.77499999999998,125.21267718386667L171.45,122.82722077158303L172.125,117.69001490307178L172.8,115.99984416821994L173.475,113.34222566361863L174.15,117.91554163262629L174.825,110.14250880300234L175.5,119.36507699977892L176.17499999999998,114.54079914544944L176.85,108.62544888926502L177.525,114.51130909128759L178.20000000000002,121.80985719007516L178.875,119.47433628266413L179.55,119.73497049187836L180.225,120.88162351951132L180.9,118.54700163188654L181.575,115.0821326842889L182.25,122.30455970392534L182.925,117.40859018738612L183.60000000000002,119.21259037440349L184.275,118.46373000414368L184.95000000000002,128.76949323021094L185.625,123.10590063811969L186.29999999999998,116.83182891973831L186.975,122.28122077049203L187.64999999999998,123.23251981136036L188.325,118.96106734631559L189,125.2544094071275L189.675,120.95772911382633L190.35,125.14604135517031L191.025,119.62730693914742L191.7,116.98959899404596L192.375,118.35578383083514L193.04999999999998,121.51548947140796L193.725,123.83570411550139L194.4,119.23752092170994L195.07500000000002,124.92022950757513L195.75,122.63991182233276L196.425,120.40218979826798L197.1,128.8031283619676L197.775,122.05927490409259L198.45,121.64112628628439L199.125,122.23269806581514L199.8,124.3665218886402L200.47500000000002,125.34008126278718L201.15,122.66724536907674L201.82500000000002,118.60522611593407L202.5,108.28863201333205L203.17499999999998,110.88077642794325L203.85,116.55344880189026L204.52499999999998,116.84505418478761L205.2,114.51092556043058L205.875,113.28042698456997L206.55,117.37639013064398L207.225,115.0625253268033L207.9,117.24474548188545L208.575,122.16818681292354L209.25,121.38619001864961L209.92499999999998,127.10705667034532L210.6,126.58443511702067L211.275,128.37727538055648L211.95000000000002,116.16747846587381L212.625,125.34070871105124L213.3,125.8534611135542L213.975,120.44499400078178L214.65,131.90258465003322L215.325,120.81462846870036L216,121.54790911679355L216.675,114.98351508143477L217.35000000000002,106.85552076357365L218.025,112.8237573416497L218.70000000000002,123.1884654687722L219.375,122.5953167037296L220.04999999999998,113.78517110880976L220.725,119.82882832926572L221.39999999999998,123.39936721191046L222.075,122.10549855549279L222.75,125.47570773155974L223.425,117.49934218838703L224.1,129.68773299563858L224.775,140.40080672070744L225.45,129.89958964724556L226.125,125.65331106745731L226.79999999999998,127.01771028655887L227.475,125.15545539350184L228.15,134.8698249655418L228.82500000000002,126.35122613891676L229.5,123.70039331585991L230.175,121.01829387945432L230.85,113.39638366819918L231.525,118.19724242203336L232.2,123.85302914964893L232.875,128.38142357143408L233.55,129.3358528685926L234.22500000000002,126.61378987664135L234.9,129.63141371230773L235.57500000000002,131.27734428894811" style="fill: none;" fill="none"></path></g></g></g></g><g opacity="0.2"><g><g><g><path stroke="rgb(255, 112, 67)" stroke-width="2px" d="M33.75,117.47388202945393L34.425,-121.24236222108203L35.1,16.517523169517546L35.775,-36.916182200113894L36.45,67.91598383585614L37.125,91.96349863211316L37.800000000000004,18.820546011130034L38.474999999999994,87.01737904548646L39.15,132.58367482821149L39.824999999999996,-36.508878628412845L33.75,60.10038459300996L34.425,86.9443759719531L35.1,-31.137083133061708L35.775,113.79113469521207L36.45,82.57914229234062L37.125,69.68431685368222L37.800000000000004,-35.18433745702106L38.474999999999994,93.82552349567415L39.15,-29.129653334617615L39.824999999999996,23.33587054411572L40.5,8.480607112248748L41.175,50.11649592717491L41.85,25.321868896484375L42.525,21.623503307501494L43.2,121.62302413582802L43.875,97.53661621610325L44.550000000000004,54.70851037899655L45.225,-42.72371506690979L45.900000000000006,33.614812930425046L46.574999999999996,51.59132246176404L47.25,96.78228943546614L47.925,-59.493821620941134L33.75,38.27637348572415L34.425,70.37628555297853L35.1,66.94026950995129L35.775,30.562317212422727L36.45,10.99662705262503L37.125,-25.268898566563905L37.800000000000004,75.66571497917177L38.474999999999994,101.81240632136664L39.15,88.67460274696352L39.824999999999996,110.95381104946138L40.5,38.55939412117007L41.175,113.2313840488593L41.85,129.873889947931L42.525,62.33296835422517L43.2,120.90065443515778L43.875,141.2343401114146L44.550000000000004,38.94652171929681L45.225,99.982228020827L45.900000000000006,124.02995500961941L46.574999999999996,78.53469067811967L47.25,113.715779821078L47.925,113.40440053741139L48.6,56.72153675556184L49.275,109.61699807643892L49.95,20.28005047639212L50.625,133.75048842529458L51.3,97.42368558049203L51.975,118.00605206688246L52.65,159.39871187259754L53.325,117.28999509414038L54,90.39538695414862L54.675000000000004,94.64524094263714L55.349999999999994,46.59673456350964L56.025,95.58767198522887L56.699999999999996,140.88485458493233L57.375,102.95607103904089L58.05,64.47333677609764L58.725,118.21423062682152L59.4,77.92392098903657L60.075,101.33690937360129L60.75,88.37603016694389L61.425000000000004,104.37207603454591L62.1,113.92620408535005L62.775000000000006,117.58526100715002L63.449999999999996,121.73854528864226L64.125,111.25942134857179L64.8,104.25785456101102L65.475,101.49395395318669L66.15,121.62400110562643L66.825,114.60514504710835L67.5,86.09488968054455L68.175,92.46507315834364L68.85,129.12901678681374L69.525,91.64335314432782L70.2,83.52662616968156L70.875,115.56247819463414L71.55,89.41591505209607L72.22500000000001,79.72044909000398L72.9,123.89767064650854L73.575,129.12619860470295L74.25,113.54334686199826L74.92500000000001,100.0623660683632L75.60000000000001,118.30172910292944L76.27499999999999,73.19483900070192L76.94999999999999,85.73433919747673L77.625,108.28076421221098L78.3,121.18763599793118L78.975,97.98302068312964L79.64999999999999,96.34210044145586L80.325,109.92650741338731L81,113.72896228233975L81.675,88.49153363704683L82.35,63.45139984289807L83.025,50.62599672873817L83.7,134.78426172335944L84.375,56.2921121120453L85.05,115.24962682525319L85.725,91.97141164541246L86.4,108.7413855791092L87.075,102.11060756444932L87.75,91.11866289377214L88.425,95.79107621312143L89.10000000000001,133.06498717765015L89.775,78.43311234315239L90.45,122.43604425589245L91.125,126.13015273213387L91.80000000000001,102.76037647326788L92.47500000000001,127.35059578220051L93.14999999999999,102.37741315364839L93.82499999999999,114.57767937580746L94.5,96.87630399068198L33.75,64.86378872394563L34.425,120.61963194608688L35.1,111.30951204895975L35.775,73.48689550161363L36.45,119.27594923973083L37.125,30.54320220152539L37.800000000000004,-60.131813844044984L39.15,-101.55533329645789L39.824999999999996,131.1227535357078L40.5,-54.81115674972531L41.175,-200.82872684796644L41.85,59.54299900929135L42.525,32.68915836016339L43.2,54.800681511561095L43.875,103.46578403313956L44.550000000000004,86.28886018196744L45.225,108.59408417344095L45.900000000000006,88.56090291341148L46.574999999999996,30.918340921402006L47.25,50.97775006294252L47.925,72.93601715564729L48.6,39.55199543635052L49.275,108.58543290694556L49.95,72.50912998119992L50.625,80.869153380394L51.3,74.97814927498501L51.975,110.78950771689416L52.65,-60.53345894813535L53.325,121.60147333145142L54,97.15325061480206L54.675000000000004,95.78987378875416L55.349999999999994,76.82876878976823L56.025,92.1048984328906L56.699999999999996,70.71579360961915L57.375,65.57504041989647L58.05,131.7717642982801L58.725,108.36462889115018L59.4,40.09257360299432L60.075,18.46537991364798L60.75,120.33196075757346L61.425000000000004,104.59501081705095L62.1,65.94172680377962L62.775000000000006,109.30285586913428L63.449999999999996,41.9029914736748L64.125,115.25475039084753L64.8,78.50595627228421L65.475,89.30497372150423L66.15,98.62100848555566L66.825,126.42031497259936L67.5,92.00966819127402L68.175,123.04264966646832L68.85,71.2670521338781L69.525,132.24519015848637L70.2,-12.699196298917116L70.875,124.99627539515495L71.55,83.75444138050081L72.22500000000001,102.51807028055192L72.9,103.2681929965814L73.575,108.12783086299898L74.25,106.72722750902177L74.92500000000001,99.00204438964528L75.60000000000001,109.88148723045987L76.27499999999999,116.42154409488043L76.94999999999999,109.24480794866881L77.625,66.48324215412141L78.3,125.66814769307774L78.975,110.60873735944432L79.64999999999999,108.77040290832521L80.325,72.51884663105012L81,67.86658718188606L81.675,105.95090785622598L82.35,106.42532173792523L83.025,113.4779208302498L83.7,99.59930448730788L84.375,87.47017139196397L85.05,119.24467294414839L85.725,114.48587958017987L86.4,125.65657877922058L87.075,152.660923615098L87.75,79.09848624467851L88.425,94.45028020938238L89.10000000000001,128.03723756472272L89.775,82.77100855112077L90.45,68.49329783519111L91.125,93.83721176783246L91.80000000000001,105.77487204472226L92.47500000000001,90.53097356359166L93.14999999999999,113.61775129040083L93.82499999999999,126.35190498332184L94.5,106.25164214770001L95.175,66.40494310855867L95.85,131.15443432331085L96.52499999999999,117.18446467320126L97.2,106.89480656385423L97.875,109.80658768614134L98.55,133.77023338278136L99.225,87.23175539573036L99.9,126.58844219148159L100.575,121.89005517959595L101.25,111.45366593201956L101.925,106.86231016119322L102.6,131.29725758234662L103.275,121.31304178635281L103.95,108.22612463434538L104.625,119.9323359032472L105.3,103.47755187749864L105.97500000000001,102.66098195314409L106.65,100.05837861696881L107.325,74.7292120655378L108,151.02069631467265L108.67500000000001,84.57014485200249L109.35000000000001,92.97490551074347L110.02499999999999,114.89212218920392L110.69999999999999,109.21089692910513L111.375,101.81810457507771L112.05,105.0366984208425L112.725,123.00053828954697L113.39999999999999,84.58817237615587L114.075,107.04953028758368L114.75,88.84473695357643L115.425,118.00004436572394L116.1,159.00403486192226L116.775,88.1198253631592L117.45,95.64724946022035L118.125,114.20452996095023L118.8,111.02457726001741L119.475,133.07305049399537L120.15,121.56174912055334L120.825,88.04522200425468L121.5,101.42285177111627L122.175,101.21607456604642L122.85000000000001,104.8844016492367L123.525,114.42358780900639L124.2,101.76012296477955L124.875,95.00242286920549L125.55000000000001,114.13078421354294L126.22500000000001,99.21004170179368L126.89999999999999,74.26664117972058L127.57499999999999,132.29273896912736L128.25,104.94278112053873L128.92499999999998,105.98365181684495L129.6,86.3605901002884L130.275,64.61661978562675L130.95,132.93099422256154L131.625,113.23603460192682L132.3,111.47530072927476L132.975,110.77174985408784L133.65,134.87551556527615L134.325,121.85796989997229L135,118.52927907307944L135.67499999999998,91.01608548561734L136.35,137.54621060192585L137.02499999999998,88.49673235416414L137.7,104.04692191878956L138.375,95.36240750551225L139.05,122.750509172678L139.725,110.70209765434267L140.4,107.75492900609972L141.075,126.41119953493279L141.75,132.59931739668053L142.42499999999998,100.15893135468167L143.1,104.48486962914468L143.775,113.40943568944932L144.45000000000002,116.0650252699852L145.125,102.98168002565703L145.8,116.86804581681889L146.475,99.8680507540703L147.15,163.16666666666666L147.825,119.30778254071873L148.5,116.11416110396385L149.175,133.79653420547646L149.85000000000002,99.69101144870123L150.525,154.02108992387852L151.20000000000002,107.24845636884373L151.875,126.29413114488125L152.54999999999998,100.35745515426001L153.225,125.04471718271574L153.89999999999998,117.66264939308167L154.575,97.66234029332799L155.25,119.61621323227882L155.925,132.3578025052945L156.6,83.48907693227135L157.275,119.75630893309912L157.95,120.59428377946219L158.625,135.8640388051669L159.29999999999998,115.01448655128479L159.975,94.63565691312155L160.65,113.63313082853955L161.32500000000002,89.47957281271619L162,128.40529877940816L162.675,118.63680764039358L163.35,132.73823056618374L164.025,112.45837106307349L164.7,118.7645652294159L165.375,141.32015430927277L166.05,90.19493573904039L166.72500000000002,113.65007970730466L167.4,126.68476213018101L168.07500000000002,104.3403223057588L168.75,124.70912584662437L169.42499999999998,108.08966273069383L170.1,138.3843689064185L170.77499999999998,127.59168407817683L171.45,119.24903615315756L172.125,109.98420610030493L172.8,113.46458806594214L173.475,109.35579790671667L174.15,124.77551558613777L174.825,98.48295955856642L175.5,133.1989292949438L176.17499999999998,107.3043823639552L176.85,99.75242350498837L177.525,123.34009939432144L178.20000000000002,132.75767933825654L178.875,115.97105492154759L179.55,120.12592180569968L180.225,122.60160306096077L180.9,115.04506880044937L181.575,109.88482926289242L182.25,133.13820023338002L182.925,110.06463591257733L183.60000000000002,121.91859065492949L184.275,117.34043944875401L184.95000000000002,144.2281380693118L185.625,114.61051174998283L186.29999999999998,107.42072134216627L186.975,130.4553085466226L187.64999999999998,124.65946837266287L188.325,112.55388864874841L189,134.69442249834538L189.675,114.51270867387456L190.35,131.4285097171863L191.025,111.34920531511308L191.7,113.03303707639378L192.375,120.40506108601889L193.04999999999998,126.25504793226719L193.725,127.31602608164152L194.4,112.34024613102278L195.07500000000002,133.4442923863729L195.75,119.2194352944692L196.425,117.04560676217079L197.1,141.404536207517L197.775,111.94349471728009L198.45,121.01390335957211L199.125,123.12005573511124L199.8,127.56725762287778L200.47500000000002,126.80042032400769L201.15,118.65799152851105L201.82500000000002,112.51219723622006L202.5,92.81374085942906L203.17499999999998,114.76899304986L203.85,125.06245736281079L204.52499999999998,117.28246225913367L205.2,111.00973262389502L205.875,111.43467912077905L206.55,123.52033484975499L207.225,111.59172812104227L207.9,120.51807571450871L208.575,129.55334880948067L209.25,120.21319482723874L209.92499999999998,135.68835664788884L210.6,125.80050278703374L211.275,131.06653577586016L211.95000000000002,97.85278309384984L212.625,139.10055407881737L213.3,126.6225897173087L213.975,112.33229333162309L214.65,149.08897062391043L215.325,104.18269419670106L216,122.64783008893332L216.675,105.13692402839662L217.35000000000002,94.66352928678197L218.025,121.77611220876378L218.70000000000002,138.73552765945595L219.375,121.7055935561657L220.04999999999998,100.56995271643004L220.725,128.89431415994963L221.39999999999998,128.75517553587756L222.075,120.16469557086629L222.75,130.53102149566016L223.425,105.53479387362799L224.1,147.97031920651597L224.775,156.4704173083107L225.45,114.14776403705281L226.125,119.28389319777489L226.79999999999998,129.0643091152112L227.475,122.3620730539163L228.15,149.44137932360172L228.82500000000002,113.5733278989792L229.5,119.72414408127469L230.175,116.99514472484589L230.85,101.96351835131647L231.525,125.39853055278462L232.2,132.33670924107236L232.875,135.17401520411175L233.55,130.76749681433043L234.22500000000002,122.53069538871449L234.9,134.1578494658073L235.57500000000002,133.74624015390873" style="fill: none;" fill="none"></path></g></g></g></g></g></g><g transform="translate(60, 178)" clip-path="url(#clip_1)"><clipPath id="clip_1"><rect width="270" height="22"></rect></clipPath><g><g><line x1="0" y1="0" x2="0" y2="5" style="visibility: inherit;" fill="rgb(0, 0, 0)" stroke="rgb(204, 204, 204)" stroke-width="1px"></line><line x1="33.75" y1="0" x2="33.75" y2="5" style="visibility: inherit;" fill="rgb(0, 0, 0)" stroke="rgb(204, 204, 204)" stroke-width="1px"></line><line x1="67.5" y1="0" x2="67.5" y2="5" style="visibility: inherit;" fill="rgb(0, 0, 0)" stroke="rgb(204, 204, 204)" stroke-width="1px"></line><line x1="101.25" y1="0" x2="101.25" y2="5" style="visibility: inherit;" fill="rgb(0, 0, 0)" stroke="rgb(204, 204, 204)" stroke-width="1px"></line><line x1="135" y1="0" x2="135" y2="5" style="visibility: inherit;" fill="rgb(0, 0, 0)" stroke="rgb(204, 204, 204)" stroke-width="1px"></line><line x1="168.75" y1="0" x2="168.75" y2="5" style="visibility: inherit;" fill="rgb(0, 0, 0)" stroke="rgb(204, 204, 204)" stroke-width="1px"></line><line x1="202.5" y1="0" x2="202.5" y2="5" style="visibility: inherit;" fill="rgb(0, 0, 0)" stroke="rgb(204, 204, 204)" stroke-width="1px"></line><line x1="236.25" y1="0" x2="236.25" y2="5" style="visibility: inherit;" fill="rgb(0, 0, 0)" stroke="rgb(204, 204, 204)" stroke-width="1px"></line><line x1="270" y1="0" x2="270" y2="5" style="visibility: inherit;" fill="rgb(0, 0, 0)" stroke="rgb(204, 204, 204)" stroke-width="1px"></line></g><g transform="translate(0, 8)"><text x="0" y="0" dx="0em" dy="0.95em" style="text-anchor: middle; visibility: hidden; font-family: &quot;Helvetica Neue&quot;, sans-serif; font-size: 12px; font-weight: 200;" fill="rgb(50, 49, 63)" stroke="none" stroke-width="1px">-50</text><text x="33.75" y="0" dx="0em" dy="0.95em" style="text-anchor: middle; visibility: inherit; font-family: &quot;Helvetica Neue&quot;, sans-serif; font-size: 12px; font-weight: 200;" fill="rgb(50, 49, 63)" stroke="none" stroke-width="1px">0</text><text x="67.5" y="0" dx="0em" dy="0.95em" style="text-anchor: middle; visibility: inherit; font-family: &quot;Helvetica Neue&quot;, sans-serif; font-size: 12px; font-weight: 200;" fill="rgb(50, 49, 63)" stroke="none" stroke-width="1px">50</text><text x="101.25" y="0" dx="0em" dy="0.95em" style="text-anchor: middle; visibility: inherit; font-family: &quot;Helvetica Neue&quot;, sans-serif; font-size: 12px; font-weight: 200;" fill="rgb(50, 49, 63)" stroke="none" stroke-width="1px">100</text><text x="135" y="0" dx="0em" dy="0.95em" style="text-anchor: middle; visibility: inherit; font-family: &quot;Helvetica Neue&quot;, sans-serif; font-size: 12px; font-weight: 200;" fill="rgb(50, 49, 63)" stroke="none" stroke-width="1px">150</text><text x="168.75" y="0" dx="0em" dy="0.95em" style="text-anchor: middle; visibility: inherit; font-family: &quot;Helvetica Neue&quot;, sans-serif; font-size: 12px; font-weight: 200;" fill="rgb(50, 49, 63)" stroke="none" stroke-width="1px">200</text><text x="202.5" y="0" dx="0em" dy="0.95em" style="text-anchor: middle; visibility: inherit; font-family: &quot;Helvetica Neue&quot;, sans-serif; font-size: 12px; font-weight: 200;" fill="rgb(50, 49, 63)" stroke="none" stroke-width="1px">250</text><text x="236.25" y="0" dx="0em" dy="0.95em" style="text-anchor: middle; visibility: inherit; font-family: &quot;Helvetica Neue&quot;, sans-serif; font-size: 12px; font-weight: 200;" fill="rgb(50, 49, 63)" stroke="none" stroke-width="1px">300</text><text x="270" y="0" dx="0em" dy="0.95em" style="text-anchor: middle; visibility: hidden; font-family: &quot;Helvetica Neue&quot;, sans-serif; font-size: 12px; font-weight: 200;" fill="rgb(50, 49, 63)" stroke="none" stroke-width="1px">350</text></g><line x1="0" y1="0" x2="270" y2="0" fill="rgb(0, 0, 0)" stroke="rgb(204, 204, 204)" stroke-width="1px"></line></g></g></g></g></svg>