<svg viewBox="0 0 330 200" xmlns="http://www.w3.org/2000/svg"><g><g><g><g><g><line x1="40" y1="178" x2="35" y2="178" style="visibility: inherit;" fill="rgb(0, 0, 0)" stroke="rgb(204, 204, 204)" stroke-width="1px"></line><line x1="40" y1="155.75000000000003" x2="35" y2="155.75000000000003" style="visibility: inherit;" fill="rgb(0, 0, 0)" stroke="rgb(204, 204, 204)" stroke-width="1px"></line><line x1="40" y1="133.5" x2="35" y2="133.5" style="visibility: inherit;" fill="rgb(0, 0, 0)" stroke="rgb(204, 204, 204)" stroke-width="1px"></line><line x1="40" y1="111.25000000000003" x2="35" y2="111.25000000000003" style="visibility: inherit;" fill="rgb(0, 0, 0)" stroke="rgb(204, 204, 204)" stroke-width="1px"></line><line x1="40" y1="89" x2="35" y2="89" style="visibility: inherit;" fill="rgb(0, 0, 0)" stroke="rgb(204, 204, 204)" stroke-width="1px"></line><line x1="40" y1="66.74999999999999" x2="35" y2="66.74999999999999" style="visibility: inherit;" fill="rgb(0, 0, 0)" stroke="rgb(204, 204, 204)" stroke-width="1px"></line><line x1="40" y1="44.5" x2="35" y2="44.5" style="visibility: inherit;" fill="rgb(0, 0, 0)" stroke="rgb(204, 204, 204)" stroke-width="1px"></line><line x1="40" y1="22.24999999999997" x2="35" y2="22.24999999999997" style="visibility: inherit;" fill="rgb(0, 0, 0)" stroke="rgb(204, 204, 204)" stroke-width="1px"></line><line x1="40" y1="0" x2="35" y2="0" style="visibility: inherit;" fill="rgb(0, 0, 0)" stroke="rgb(204, 204, 204)" stroke-width="1px"></line></g><g transform="translate(30, 0)"><text x="0" y="178" dx="0em" dy="0.3em" style="text-anchor: end; visibility: hidden; font-family: &quot;Helvetica Neue&quot;, sans-serif; font-size: 12px; font-weight: 200;" fill="rgb(50, 49, 63)" stroke="none" stroke-width="1px">2.2</text><text x="0" y="155.75000000000003" dx="0em" dy="0.3em" style="text-anchor: end; visibility: inherit; font-family: &quot;Helvetica Neue&quot;, sans-serif; font-size: 12px; font-weight: 200;" fill="rgb(50, 49, 63)" stroke="none" stroke-width="1px">2.4</text><text x="0" y="133.5" dx="0em" dy="0.3em" style="text-anchor: end; visibility: hidden; font-family: &quot;Helvetica Neue&quot;, sans-serif; font-size: 12px; font-weight: 200;" fill="rgb(50, 49, 63)" stroke="none" stroke-width="1px">2.6</text><text x="0" y="111.25000000000003" dx="0em" dy="0.3em" style="text-anchor: end; visibility: inherit; font-family: &quot;Helvetica Neue&quot;, sans-serif; font-size: 12px; font-weight: 200;" fill="rgb(50, 49, 63)" stroke="none" stroke-width="1px">2.8</text><text x="0" y="89" dx="0em" dy="0.3em" style="text-anchor: end; visibility: hidden; font-family: &quot;Helvetica Neue&quot;, sans-serif; font-size: 12px; font-weight: 200;" fill="rgb(50, 49, 63)" stroke="none" stroke-width="1px">3</text><text x="0" y="66.74999999999999" dx="0em" dy="0.3em" style="text-anchor: end; visibility: inherit; font-family: &quot;Helvetica Neue&quot;, sans-serif; font-size: 12px; font-weight: 200;" fill="rgb(50, 49, 63)" stroke="none" stroke-width="1px">3.2</text><text x="0" y="44.5" dx="0em" dy="0.3em" style="text-anchor: end; visibility: hidden; font-family: &quot;Helvetica Neue&quot;, sans-serif; font-size: 12px; font-weight: 200;" fill="rgb(50, 49, 63)" stroke="none" stroke-width="1px">3.4</text><text x="0" y="22.24999999999997" dx="0em" dy="0.3em" style="text-anchor: end; visibility: inherit; font-family: &quot;Helvetica Neue&quot;, sans-serif; font-size: 12px; font-weight: 200;" fill="rgb(50, 49, 63)" stroke="none" stroke-width="1px">3.6</text><text x="0" y="0" dx="0em" dy="0.3em" style="text-anchor: end; visibility: hidden; font-family: &quot;Helvetica Neue&quot;, sans-serif; font-size: 12px; font-weight: 200;" fill="rgb(50, 49, 63)" stroke="none" stroke-width="1px">3.8</text></g><line x1="40" y1="0" x2="40" y2="178" fill="rgb(0, 0, 0)" stroke="rgb(204, 204, 204)" stroke-width="1px"></line></g></g><g transform="translate(40, 0)" clip-path="url(#clip_0)"><clipPath id="clip_0"><rect width="290" height="178"></rect></clipPath><g><g><g><line x1="0" y1="0" x2="0" y2="178" fill="rgb(0, 0, 0)" stroke="rgb(60, 60, 60)" stroke-width="1px" opacity="0.25"></line><line x1="36.25" y1="0" x2="36.25" y2="178" fill="rgb(0, 0, 0)" stroke="rgb(60, 60, 60)" stroke-width="1px" opacity="0.25"></line><line x1="72.5" y1="0" x2="72.5" y2="178" fill="rgb(0, 0, 0)" stroke="rgb(60, 60, 60)" stroke-width="1px" opacity="0.25"></line><line x1="108.75" y1="0" x2="108.75" y2="178" fill="rgb(0, 0, 0)" stroke="rgb(60, 60, 60)" stroke-width="1px" opacity="0.25"></line><line x1="145" y1="0" x2="145" y2="178" fill="rgb(0, 0, 0)" stroke="rgb(60, 60, 60)" stroke-width="1px" opacity="0.25"></line><line x1="181.25" y1="0" x2="181.25" y2="178" fill="rgb(0, 0, 0)" stroke="rgb(60, 60, 60)" stroke-width="1px" opacity="0.25"></line><line x1="217.5" y1="0" x2="217.5" y2="178" fill="rgb(0, 0, 0)" stroke="rgb(60, 60, 60)" stroke-width="1px" opacity="0.25"></line><line x1="253.75" y1="0" x2="253.75" y2="178" fill="rgb(0, 0, 0)" stroke="rgb(60, 60, 60)" stroke-width="1px" opacity="0.25"></line><line x1="290" y1="0" x2="290" y2="178" fill="rgb(0, 0, 0)" stroke="rgb(60, 60, 60)" stroke-width="1px" opacity="0.25"></line></g><g><line x1="0" y1="178" x2="290" y2="178" fill="rgb(0, 0, 0)" stroke="rgb(60, 60, 60)" stroke-width="1px" opacity="0.25"></line><line x1="0" y1="155.75000000000003" x2="290" y2="155.75000000000003" fill="rgb(0, 0, 0)" stroke="rgb(60, 60, 60)" stroke-width="1px" opacity="0.25"></line><line x1="0" y1="133.5" x2="290" y2="133.5" fill="rgb(0, 0, 0)" stroke="rgb(60, 60, 60)" stroke-width="1px" opacity="0.25"></line><line x1="0" y1="111.25000000000003" x2="290" y2="111.25000000000003" fill="rgb(0, 0, 0)" stroke="rgb(60, 60, 60)" stroke-width="1px" opacity="0.25"></line><line x1="0" y1="89" x2="290" y2="89" fill="rgb(0, 0, 0)" stroke="rgb(60, 60, 60)" stroke-width="1px" opacity="0.25"></line><line x1="0" y1="66.74999999999999" x2="290" y2="66.74999999999999" fill="rgb(0, 0, 0)" stroke="rgb(60, 60, 60)" stroke-width="1px" opacity="0.25"></line><line x1="0" y1="44.5" x2="290" y2="44.5" fill="rgb(0, 0, 0)" stroke="rgb(60, 60, 60)" stroke-width="1px" opacity="0.25"></line><line x1="0" y1="22.24999999999997" x2="290" y2="22.24999999999997" fill="rgb(0, 0, 0)" stroke="rgb(60, 60, 60)" stroke-width="1px" opacity="0.25"></line><line x1="0" y1="0" x2="290" y2="0" fill="rgb(0, 0, 0)" stroke="rgb(60, 60, 60)" stroke-width="1px" opacity="0.25"></line></g></g></g><g><g><line x1="0" y1="422.7500000000001" x2="290" y2="422.7500000000001" fill="rgb(0, 0, 0)" stroke="rgb(153, 153, 153)" stroke-width="1.5px"></line></g></g><g><g><line x1="36.25" y1="0" x2="36.25" y2="178" fill="rgb(0, 0, 0)" stroke="rgb(153, 153, 153)" stroke-width="1.5px"></line></g></g><g><g><g><g><g><path stroke="rgb(255, 112, 67)" stroke-width="2px" d="M36.25,32.520739376544924L36.975,9.153135880827932L37.7,24.93828812545658L38.425000000000004,32.770245520726746L39.150000000000006,17.55543534636581L39.875,42.91289828479216L40.6,15.687355053434544L41.324999999999996,46.258258748169794L42.05,61.86194062502159L42.775,41.34321433516075L36.25,6.415579969739838L36.975,5.864520745051863L37.7,-2.0538409009774625L38.425000000000004,26.81266638636251L39.150000000000006,68.23451893546694L39.875,-2.1296179749708983L40.6,-14.01357097458191L41.324999999999996,40.85770655278273L42.05,40.648577252625216L42.775,52.864103974080635L43.5,65.21446237859251L44.225,58.479913558711246L44.95,45.43837633886005L45.675,31.896622764414076L46.4,45.04957573678675L47.125,58.67252642989432L47.85,59.43785847722215L48.575,42.23650565909881L49.300000000000004,37.88648258604562L50.025,34.65871350312139L50.75,21.21091361687286L51.474999999999994,5.535248533115833L36.25,24.2913871275573L36.975,69.77969448166066L37.7,53.550768194143544L38.425000000000004,38.536566136913194L39.150000000000006,50.65119667316726L39.875,27.4553227723533L40.6,27.286007517252273L41.324999999999996,78.47287141589544L42.05,82.93122422640413L42.775,87.26831882175833L43.5,81.54530754506462L44.225,118.61536364494165L44.95,93.45294830977672L45.675,79.18572362441098L46.4,99.0577986973705L47.125,73.13222937157248L47.85,58.838627030481035L48.575,38.494755655379976L49.300000000000004,58.51326441169668L50.025,75.23512882834113L50.75,61.24686419273222L51.474999999999994,51.3001786190454L52.199999999999996,76.06584764232908L52.925,84.1347696346711L53.65,58.47684094682778L54.375,56.140316876026276L55.1,33.174707360416136L55.825,55.00309516629652L56.550000000000004,74.42571464563115L57.275000000000006,80.56638633838135L58,82.89410455006856L58.725,89.69556581365171L59.449999999999996,64.37376110188421L60.175,59.65454426069411L60.9,53.5532120624742L61.625,63.50891383645302L62.35,61.40100340936998L63.075,69.44785974558842L63.8,67.21492742381476L64.525,59.86685151387445L65.25,50.56728631573432L65.97500000000001,73.12183717678501L66.7,79.26867601746626L67.425,85.9944003431458L68.14999999999999,90.65429635098326L68.875,87.6253260567829L69.6,80.89755398005518L70.325,59.233950722040376L71.05,64.33951479662757L71.775,90.33876561206164L72.5,89.43268632341375L73.225,100.32190889983742L73.95,103.44226185601572L74.675,101.60960257125865L75.4,91.27315983815771L76.125,89.64029813792571L76.85000000000001,93.78242087952057L77.575,86.51068919057704L78.30000000000001,87.49394720289148L79.025,73.80210305150173L79.75,78.2666782194127L80.47500000000001,74.9004611524194L81.2,76.06961338235436L81.925,71.92441501923498L82.64999999999999,85.09812363808211L83.375,83.77995195880449L84.1,85.4157676630909L84.82499999999999,85.3277642687377L85.55,96.15629093409875L86.27499999999999,98.45007438994227L87,102.54368207178581L87.725,100.75157175852105L88.45,84.75769559379364L89.175,105.21515355012382L89.9,109.79683197439648L90.625,106.78238208830919L91.35,107.8227895005975L92.075,97.28104895975791L92.8,107.08253122941615L93.525,98.08522268280961L94.25,99.12879073706614L94.97500000000001,107.6262773280582L95.7,99.85705320866352L96.42500000000001,108.41541076202058L97.15,105.22241998016162L97.875,115.76586034476352L98.60000000000001,122.02798034298176L99.325,136.29852248160694L100.05,124.6245761449853L100.77499999999999,111.26804443214654L101.5,107.91299288281391L36.25,53.954613928846086L36.975,55.02762322715019L37.7,36.06185723001417L38.425000000000004,55.72561386021766L39.150000000000006,29.2854149269628L39.875,-4.485834078337717L42.05,-64.99404688566005L42.775,11.346401549046789L43.5,26.483268580833396L44.225,-18.395438193083265L44.95,-15.618656777620572L45.675,6.088477168512156L46.4,47.02205977084151L47.125,69.98995898510164L47.85,92.78944357839316L48.575,79.32701421145852L49.300000000000004,67.28364627578411L50.025,62.22142706524464L50.75,61.989386953181835L51.474999999999994,91.95342984036613L52.199999999999996,92.86905063531405L52.925,88.59072464312078L53.65,54.5456348276434L54.375,78.24358368017062L55.1,92.0729584699737L55.825,94.38120501076382L56.550000000000004,87.24971004030229L57.275000000000006,108.1390333396263L58,106.72973166835709L58.725,96.41793398220777L59.449999999999996,83.8720180044141L60.175,64.36445981559552L60.9,58.89066163478728L61.625,51.64418578015825L62.35,71.09184703747667L63.075,74.58397577715061L63.8,58.59543065137947L64.525,26.05419013444947L65.25,42.244674858715314L65.97500000000001,71.1508893115915L66.7,67.00145570895656L67.425,79.06745019234172L68.14999999999999,93.48489438698863L68.875,107.41402155879838L69.6,72.27294053270639L70.325,64.06553543588056L71.05,91.69731565106237L71.775,106.58423318736749L72.5,97.98235219879744L73.225,107.00252817966819L73.95,107.89670457183291L74.675,110.9723168953596L75.4,66.81921243335836L76.125,91.02220473090426L76.85000000000001,66.78203638434181L77.575,73.18753464245657L78.30000000000001,57.32208323016083L79.025,44.47799937447493L79.75,36.050720408681485L80.47500000000001,49.9834418029329L81.2,79.16913541142587L81.925,80.04863541116978L82.64999999999999,84.72067842954796L83.375,95.20964518829827L84.1,88.21484966066264L84.82499999999999,94.66284429423082L85.55,100.37434227104231L86.27499999999999,98.525604145737L87,71.3921032530138L87.725,67.12958000791484L88.45,81.15168737585796L89.175,88.32322229871426L89.9,90.1044047232227L90.625,81.59944319461323L91.35,81.22569680055702L92.075,74.4262282600446L92.8,90.87981403770708L93.525,97.33455167354744L94.25,98.9875950940943L94.97500000000001,93.1343445854483L95.7,89.35727031690469L96.42500000000001,86.36652617253415L97.15,90.68169691918823L97.875,84.18385562156759L98.60000000000001,68.6071240476079L99.325,87.19334657021207L100.05,89.48905486481097L100.77499999999999,100.12700769076767L101.5,99.24978154164567L102.225,103.63368721760519L102.94999999999999,111.13746719334847L103.675,99.34274371131853L104.39999999999999,111.39291293421147L105.125,107.26389183401321L105.85,114.76177757858787L106.575,103.75521851706239L107.3,109.2749141998752L108.025,110.55257969782731L108.75,106.62703972867716L109.475,108.72987030632252L110.2,103.14949461631153L110.925,110.3959788370858L111.65,98.72890300087518L112.375,89.41433717329734L113.10000000000001,92.05830732297555L113.825,89.42532572335992L114.55000000000001,79.95997410528062L115.275,102.72800527520296L116,104.9785841614444L116.72500000000001,99.58148471775289L117.45,108.39635520137928L118.175,114.73049548243034L118.89999999999999,113.7864924846563L119.625,112.93444770446261L120.35,110.08844515008235L121.07499999999999,102.48762033177917L121.8,101.04218612786235L122.52499999999999,106.27277676270067L123.25,90.0659408569673L123.975,99.53514218332404L124.7,111.46608326436305L125.425,113.2761865234448L126.15,120.06827550983866L126.875,113.68781598720813L127.6,113.61349146553198L128.325,114.67510948770237L129.05,118.52592722292539L129.775,116.19440908262611L130.5,113.6353991689055L131.225,112.72151576648768L131.95000000000002,124.42048265439641L132.675,119.48424571694358L133.4,120.04633194173232L134.125,118.07167173603092L134.85,119.70172630059074L135.57500000000002,118.65693820898147L136.29999999999998,112.2075340115095L137.025,119.54141334075123L137.75,122.75739891158575L138.475,120.0466153551759L139.2,132.73649973449835L139.92499999999998,124.13936626182638L140.65,132.92510644952438L141.375,118.39998431420317L142.1,121.79582121024123L142.825,122.09641073971744L143.55,119.6725148608074L144.275,125.64066161214029L145,120.3390109866781L145.725,121.36446177541751L146.45,117.77590105282985L147.17499999999998,118.71784737913444L147.9,103.93243424420733L148.625,103.21377210810887L149.35,112.42277877923908L150.075,113.33079894421734L150.8,117.35984430335904L151.52499999999998,127.76670242323249L152.25,125.18999481781586L152.975,127.37342381825601L153.70000000000002,125.67891979426477L154.42499999999998,117.8039636624475L155.15,123.44013929442283L155.875,128.84019885108307L156.60000000000002,136.539800224575L157.325,122.16918851010357L158.05,125.47309232397292L158.775,129.66819959070335L159.5,131.7102709602478L160.225,126.98742811627167L160.95000000000002,122.66420507876262L161.675,119.98961687355153L162.4,117.9552801625068L163.125,112.33214984989966L163.85,116.1960317293215L164.575,122.8320121287947L165.29999999999998,132.4154196452883L166.025,128.81509398649854L166.75,132.88900918502043L167.475,145.48962511264347L168.2,134.0321007588092L168.925,122.55847208610675L169.64999999999998,128.76074963159266L170.375,132.55273383466542L171.1,132.57238136296357L171.82500000000002,118.85473991969158L172.54999999999998,128.56724072419962L173.275,125.86570468499278L174,128.71451272341017L174.72500000000002,127.99830955131299L175.45,126.8097022644487L176.175,128.31849080752175L176.9,128.47916971701883L177.625,135.10231177245674L178.35,135.91628942629754L179.07500000000002,133.07229834640657L179.8,133.9106226792612L180.525,126.92656281177273L181.25,130.6884028827195L181.975,128.49303912610083L182.7,127.42731146508619L183.42499999999998,123.09484415348867L184.15,127.97923534570037L184.875,125.43436900054155L185.6,123.14041561648094L186.325,127.53807832458521L187.05,138.27451602017226L187.77499999999998,134.85973829862678L188.5,144.63411242268808L189.225,137.154330292358L189.95000000000002,130.73468139112828L190.67499999999998,131.5746705910017L191.4,131.6314259040624L192.125,134.560071734683L192.85000000000002,130.88192621952072L193.575,121.99332938245402L194.3,130.8809754946915L195.025,134.98108525866792L195.75,142.63983640548304L196.475,136.36295693800875L197.20000000000002,144.07934185079353L197.925,144.2002299559809L198.65,139.46788565711364L199.375,146.31166262862794L200.1,151.2633250918252L200.825,153.25094809331074L201.54999999999998,152.70569685815323L202.275,147.29195153545473L203,150.37260134119472L203.725,147.4449616378467L204.45,137.58079810773853L205.175,146.80211007497024L205.89999999999998,151.8080019706566L206.625,147.10008903468128L207.35,146.30466580465125L208.07500000000002,145.0397850041073L208.79999999999998,140.12772873428352L209.525,138.7644061528855L210.25,138.49154583711706L210.97500000000002,135.8194592481809L211.7,136.95911410367228L212.425,141.36970817396488L213.15,150.70586928933528L213.875,149.72782555347484L214.6,145.7331447549212L215.32500000000002,128.90554632827923L216.05,135.1602151518183L216.775,132.56839597970946L217.5,137.75530851334747L218.225,138.50288851529606L218.95,143.36787402314096L219.67499999999998,141.83198914338436L220.4,134.5391120994645L221.125,132.23695254829872L221.85,127.23251171414464L222.575,130.89519669714218L223.3,132.84689775766523L224.02499999999998,132.32573597229475L224.75,124.73828306553933L225.475,128.62509040092334L226.20000000000002,131.60298278364482L226.92499999999998,132.07007161636915L227.65,132.8760107032047L228.375,135.56075342128196L229.10000000000002,138.57464792507602L229.825,121.43630253182477L230.55,133.51675464455266L231.275,131.94312125291816L232,126.39519075063701L232.725,121.67118165199662L233.45000000000002,109.95942562404099L234.175,113.98421863068835L234.9,108.42609784215507L235.625,111.41980407959115L236.35,112.49314090207753L237.075,122.21854851600848L237.79999999999998,115.63779247973753L238.525,120.06555431589126L239.25,127.29940598907848L239.975,121.91658819736712L240.7,132.72480238092942L241.425,123.56051018603448L242.14999999999998,125.23197368841053L242.875,131.0477073911469L243.6,134.60629055044896L244.32500000000002,135.0586793729177L245.04999999999998,131.06353613784978L245.775,139.0762764754955L246.5,139.48304749387884L247.22500000000002,142.8517088464402L247.95,150.96213118860146L248.675,154.81090016739975L249.4,147.2930265878285L250.125,153.92229384271172L250.85,144.95844365410724L251.57500000000002,148.24820922167734L252.3,154.76217187852643L253.025,159.92668684369914" style="fill: none;" fill="none"></path></g></g></g></g><g opacity="0.2"><g><g><g><path stroke="rgb(255, 112, 67)" stroke-width="2px" d="M36.25,32.520739376544924L36.975,-4.867426216602354L37.7,40.09203428030011L38.425000000000004,41.980627417564364L39.150000000000006,-2.309020817279844L39.875,77.99139821529388L40.6,-23.24560737609866L41.324999999999996,90.8309298157692L42.05,84.8743405342102L42.775,10.875297129154177L36.25,-45.65908050537112L36.975,5.040930747985811L37.7,-13.905528545379667L38.425000000000004,70.05587482452393L39.150000000000006,130.3186079263687L39.875,-107.62619709968573L40.6,-31.834471583366422L41.324999999999996,123.15069103240967L42.05,40.334915161132784L42.775,71.18627750873566L43.5,83.73932266235352L44.225,48.378311932086945L44.95,25.876327991485567L45.675,11.584152817726107L46.4,64.77891170978546L47.125,79.10689437389374L47.85,60.58585458993912L48.575,16.434502840042086L49.300000000000004,31.361451983451815L50.025,29.81706166267392L50.75,1.0392182469367697L51.474999999999994,-17.978245973587065L36.25,52.42559278011322L36.975,138.01215225458145L37.7,29.20737946033475L38.425000000000004,16.015263438224764L39.150000000000006,68.82314229011536L39.875,-7.338487863540678L40.6,27.032034635543795L41.324999999999996,155.25316709280014L42.05,89.61875343322754L42.775,93.77396070957184L43.5,72.96079063415527L44.225,174.2204477787018L44.95,55.709325313568115L45.675,57.784886598587036L46.4,128.8659113049507L47.125,34.24387538433072L47.85,37.39822351932523L48.575,7.97894859313962L49.300000000000004,88.54102754592896L50.025,100.31792545318604L50.75,40.264467239379854L51.474999999999994,36.38015025854108L52.199999999999996,113.21435117721559L52.925,96.23815262317657L53.65,19.98994791507718L54.375,52.63553076982498L55.1,-1.2737069129944132L55.825,87.74567687511444L56.550000000000004,103.55964386463165L57.275000000000006,89.77739387750626L58,86.38568186759949L58.725,99.89775770902634L59.449999999999996,26.391054034233065L60.175,52.575718998909L60.9,44.40121376514432L61.625,78.44246649742126L62.35,58.23913776874542L63.075,81.51814424991608L63.8,63.86552894115448L64.525,48.84473764896393L65.25,36.61793851852414L65.97500000000001,106.9536634683609L66.7,88.48893427848816L67.425,96.08298683166504L68.14999999999999,97.64414036273956L68.875,83.08187061548233L69.6,70.80589586496353L70.325,26.73854583501813L71.05,71.9978609085083L71.775,129.3376418352127L72.5,88.0735673904419L73.225,116.65574276447296L73.95,108.1227912902832L74.675,98.86061364412308L75.4,75.76849573850632L76.125,87.19100558757782L76.85000000000001,99.99560499191284L77.575,75.60309165716171L78.30000000000001,88.96883422136307L79.025,53.264336824417114L79.75,84.96354097127914L80.47500000000001,69.85113555192947L81.2,77.82334172725677L81.925,65.70661747455597L82.64999999999999,104.85868656635284L83.375,81.802694439888L84.1,87.86949121952057L84.82499999999999,85.19575917720795L85.55,112.39908093214036L86.27499999999999,101.89074957370758L87,108.68409359455109L87.725,98.06340628862381L88.45,60.766881346702576L89.175,135.90134048461914L89.9,116.66934961080551L90.625,102.26070725917816L91.35,109.38340061903L92.075,81.46843814849854L92.8,121.7847546339035L93.525,84.58925986289978L94.25,100.69414281845093L94.97500000000001,120.3725072145462L95.7,88.20321702957153L96.42500000000001,121.25294709205627L97.15,100.43293380737305L97.875,131.5810208916664L98.60000000000001,131.42116034030914L99.325,157.70433568954468L100.05,107.1136566400528L100.77499999999999,91.23324686288834L101.5,102.880415558815L36.25,-26.98295450210574L36.975,56.63713717460632L37.7,7.613208234310122L38.425000000000004,85.22124880552292L39.150000000000006,-10.374883472919493L39.875,-55.14270758628848L40.6,3.441927373409243L41.324999999999996,-49.11845541000369L42.05,-131.83078742027288L42.775,125.85707420110703L43.5,49.188569128513336L44.225,-85.71349835395819L44.95,-11.453484654426603L45.675,38.649178087711306L46.4,108.42243367433548L47.125,104.44180780649185L47.85,126.98867046833038L48.575,59.13337016105652L49.300000000000004,49.21859437227249L50.025,54.628098249435425L50.75,61.641326785087585L51.474999999999994,136.89949417114258L52.199999999999996,94.2424818277359L52.925,82.17323565483093L53.65,3.4780001044273092L54.375,113.7905069589615L55.1,112.81702065467836L55.825,97.843574821949L56.550000000000004,76.55246758460999L57.275000000000006,139.47301828861237L58,104.61577916145325L58.725,80.95023745298386L59.449999999999996,65.05314403772354L60.175,35.10312253236768L60.9,50.67996436357498L61.625,40.77447199821469L62.35,100.26333892345428L63.075,79.82216888666153L63.8,34.61261296272275L64.525,-22.757670640945463L65.25,66.53040194511414L65.97500000000001,114.51021099090576L66.7,60.77730530500412L67.425,97.16644191741943L68.14999999999999,115.11106067895889L68.875,128.30771231651306L69.6,19.561318993568392L70.325,51.754427790641785L71.05,133.144985973835L71.775,128.9146094918251L72.5,85.07953071594238L73.225,120.53279215097427L73.95,109.23796916007996L74.675,115.58573538064957L75.4,0.5895557403564169L76.125,127.3266931772232L76.85000000000001,30.42178386449811L77.575,82.79578202962875L78.30000000000001,33.523906111717196L79.025,25.21187359094617L79.75,23.409801959991427L80.47500000000001,70.88252389431L81.2,122.94767582416534L81.925,81.36788541078568L82.64999999999999,91.72874295711517L83.375,110.94309532642365L84.1,77.72265636920929L84.82499999999999,104.33483624458313L85.55,108.94158923625946L86.27499999999999,95.75249695777893L87,30.691851913928957L87.725,60.73579514026642L88.45,102.18484842777252L89.175,99.08052468299866L89.9,92.77617835998535L90.625,68.84200090169907L91.35,80.66507720947266L92.075,64.22702544927597L92.8,115.56019270420074L93.525,107.01665812730789L94.25,101.46716022491455L94.97500000000001,84.35446882247925L95.7,83.6916589140892L96.42500000000001,81.8804099559784L97.15,97.15445303916931L97.875,74.43709367513657L98.60000000000001,45.242026686668396L99.325,115.07268035411835L100.05,92.93261730670929L100.77499999999999,116.08393692970276L101.5,97.93394231796265L102.225,110.2095457315445L102.94999999999999,122.39313715696335L103.675,81.65065848827362L104.39999999999999,129.46816676855087L105.125,101.07036018371582L105.85,126.00860619544983L106.575,87.24537992477417L107.3,117.55445772409439L108.025,112.46907794475557L108.75,100.73872977495193L109.475,111.88411617279054L110.2,94.77893108129501L110.925,121.26570516824722L111.65,81.22828924655914L112.375,75.44248843193054L113.10000000000001,96.02426254749298L113.825,85.47585332393646L114.55000000000001,65.76194667816162L115.275,136.88005203008652L116,108.35445249080658L116.72500000000001,91.48583555221558L117.45,121.61866092681885L118.175,124.23170590400696L118.89999999999999,112.37048798799516L119.625,111.65638053417207L120.35,105.81944131851196L121.07499999999999,91.08638310432434L121.8,98.87403482198715L122.52499999999999,114.11866271495819L123.25,65.75568699836731L123.975,113.7389441728592L124.7,129.36249488592148L125.425,115.99134141206741L126.15,130.25640898942947L126.875,104.11712670326233L127.6,113.50200468301774L128.325,116.26753652095795L129.05,124.30215382575989L129.775,112.69713187217714L130.5,109.79688429832458L131.225,111.35069066286088L131.95000000000002,141.96893298625946L132.675,112.07989031076433L133.4,120.8894612789154L134.125,115.10968142747879L134.85,122.14680814743042L135.57500000000002,117.08975607156754L136.29999999999998,102.53342771530151L137.025,130.5422323346138L137.75,127.58137726783752L138.475,115.98044002056122L139.2,151.77132630348206L139.92499999999998,111.2436660528183L140.65,146.10371673107147L141.375,96.61230111122131L142.1,126.8895765542984L142.825,122.54729503393173L143.55,116.03667104244232L144.275,134.59288173913956L145,112.38653504848482L145.725,122.90263795852661L146.45,112.39305996894838L147.17499999999998,120.13076686859131L147.9,81.75431454181671L148.625,102.13577890396118L149.35,126.23628878593445L150.075,114.69282919168472L150.8,123.40341234207153L151.52499999999998,143.3769896030426L152.25,121.32493340969086L152.975,130.64856731891632L153.70000000000002,123.1371637582779L154.42499999999998,105.99152946472168L155.15,131.89440274238586L155.875,136.9402881860733L156.60000000000002,148.08920228481293L157.325,100.61327093839645L158.05,130.42894804477692L158.775,135.96086049079895L159.5,134.7733780145645L160.225,119.90316385030746L160.95000000000002,116.17937052249908L161.675,115.97773456573486L162.4,114.90377509593964L163.125,103.89745438098907L163.85,121.99185454845428L164.575,132.78598272800446L165.29999999999998,146.7905309200287L166.025,123.4146054983139L166.75,138.99988198280334L167.475,164.39054900407794L168.2,116.84581422805786L168.925,105.34802907705307L169.64999999999998,138.06416594982147L170.375,138.2407101392746L171.1,132.60185265541077L171.82500000000002,98.27827775478363L172.54999999999998,143.1359919309616L173.275,121.81340062618256L174,132.98772478103638L174.72500000000002,126.92400479316711L175.45,125.02679133415222L176.175,130.58167362213135L176.9,128.7201880812645L177.625,145.0370248556137L178.35,137.13725590705872L179.07500000000002,128.80631172657013L179.8,135.1681091785431L180.525,116.45047301054001L181.25,136.33116298913956L181.975,125.19999349117279L182.7,125.82871997356415L183.42499999999998,116.59614318609238L184.15,135.30582213401794L184.875,121.61706948280334L185.6,119.69948554039001L186.325,134.13457238674164L187.05,154.37917256355286L187.77499999999998,129.7375717163086L188.5,159.2956736087799L189.225,125.9346570968628L189.95000000000002,121.10520803928375L190.67499999999998,132.83465439081192L191.4,131.7165588736534L192.125,138.9530404806137L192.85000000000002,125.36470794677734L193.575,108.66043412685394L194.3,144.2124446630478L195.025,141.13124990463257L195.75,154.12796312570572L196.475,126.94763773679733L197.20000000000002,155.6539192199707L197.925,144.3815621137619L198.65,132.3693692088127L199.375,156.57732808589935L200.1,158.6908187866211L200.825,156.2323825955391L201.54999999999998,151.88782000541687L202.275,139.17133355140686L203,154.9935760498047L203.725,143.0535020828247L204.45,122.7845528125763L205.175,160.63407802581787L205.89999999999998,159.3168398141861L206.625,140.03821963071823L207.35,145.11153095960617L208.07500000000002,143.14246380329132L208.79999999999998,132.75964432954788L209.525,136.71942228078842L210.25,138.08225536346436L210.97500000000002,131.8113293647766L211.7,138.66859638690948L212.425,147.9855992794037L213.15,164.71011096239093L213.875,148.26075994968414L214.6,139.74112355709076L215.32500000000002,103.66414868831635L216.05,144.54221838712692L216.775,128.68066722154617L217.5,145.53567731380463L218.225,139.624258518219L218.95,150.6653522849083L219.67499999999998,139.52816182374954L220.4,123.5997965335846L221.125,128.78371322155L221.85,119.72585046291351L222.575,136.3892241716385L223.3,135.7744493484497L224.02499999999998,131.54399329423904L224.75,113.3571037054062L225.475,134.45530140399933L226.20000000000002,136.06982135772705L226.92499999999998,132.77070486545563L227.65,134.08491933345795L228.375,139.58786749839783L229.10000000000002,143.09548968076706L229.825,95.72878444194794L230.55,151.6374328136444L231.275,129.5826711654663L232,118.07329499721527L232.725,114.58516800403595L233.45000000000002,92.39179158210754L234.175,120.02140814065933L234.9,100.08891665935516L235.625,115.91036343574524L236.35,114.10314613580704L237.075,136.8066599369049L237.79999999999998,105.76665842533112L238.525,126.70719707012177L239.25,138.1501834988594L239.975,113.84236150979997L240.7,148.9371236562729L241.425,109.81407189369202L242.14999999999998,127.73916894197464L242.875,139.77130794525146L243.6,139.944165289402L244.32500000000002,135.7372626066208L245.04999999999998,125.0708212852478L245.775,151.0953869819641L246.5,140.09320402145386L247.22500000000002,147.9047008752823L247.95,163.1277647018433L248.675,160.58405363559723L249.4,136.01621621847153L250.125,163.86619472503665L250.85,131.51266837120056L251.57500000000002,153.18285757303238L252.3,164.53311586380008L253.025,167.67345929145816" style="fill: none;" fill="none"></path></g></g></g></g></g></g><g transform="translate(40, 178)" clip-path="url(#clip_1)"><clipPath id="clip_1"><rect width="290" height="22"></rect></clipPath><g><g><line x1="0" y1="0" x2="0" y2="5" style="visibility: inherit;" fill="rgb(0, 0, 0)" stroke="rgb(204, 204, 204)" stroke-width="1px"></line><line x1="36.25" y1="0" x2="36.25" y2="5" style="visibility: inherit;" fill="rgb(0, 0, 0)" stroke="rgb(204, 204, 204)" stroke-width="1px"></line><line x1="72.5" y1="0" x2="72.5" y2="5" style="visibility: inherit;" fill="rgb(0, 0, 0)" stroke="rgb(204, 204, 204)" stroke-width="1px"></line><line x1="108.75" y1="0" x2="108.75" y2="5" style="visibility: inherit;" fill="rgb(0, 0, 0)" stroke="rgb(204, 204, 204)" stroke-width="1px"></line><line x1="145" y1="0" x2="145" y2="5" style="visibility: inherit;" fill="rgb(0, 0, 0)" stroke="rgb(204, 204, 204)" stroke-width="1px"></line><line x1="181.25" y1="0" x2="181.25" y2="5" style="visibility: inherit;" fill="rgb(0, 0, 0)" stroke="rgb(204, 204, 204)" stroke-width="1px"></line><line x1="217.5" y1="0" x2="217.5" y2="5" style="visibility: inherit;" fill="rgb(0, 0, 0)" stroke="rgb(204, 204, 204)" stroke-width="1px"></line><line x1="253.75" y1="0" x2="253.75" y2="5" style="visibility: inherit;" fill="rgb(0, 0, 0)" stroke="rgb(204, 204, 204)" stroke-width="1px"></line><line x1="290" y1="0" x2="290" y2="5" style="visibility: inherit;" fill="rgb(0, 0, 0)" stroke="rgb(204, 204, 204)" stroke-width="1px"></line></g><g transform="translate(0, 8)"><text x="0" y="0" dx="0em" dy="0.95em" style="text-anchor: middle; visibility: hidden; font-family: &quot;Helvetica Neue&quot;, sans-serif; font-size: 12px; font-weight: 200;" fill="rgb(50, 49, 63)" stroke="none" stroke-width="1px">-50</text><text x="36.25" y="0" dx="0em" dy="0.95em" style="text-anchor: middle; visibility: inherit; font-family: &quot;Helvetica Neue&quot;, sans-serif; font-size: 12px; font-weight: 200;" fill="rgb(50, 49, 63)" stroke="none" stroke-width="1px">0</text><text x="72.5" y="0" dx="0em" dy="0.95em" style="text-anchor: middle; visibility: inherit; font-family: &quot;Helvetica Neue&quot;, sans-serif; font-size: 12px; font-weight: 200;" fill="rgb(50, 49, 63)" stroke="none" stroke-width="1px">50</text><text x="108.75" y="0" dx="0em" dy="0.95em" style="text-anchor: middle; visibility: inherit; font-family: &quot;Helvetica Neue&quot;, sans-serif; font-size: 12px; font-weight: 200;" fill="rgb(50, 49, 63)" stroke="none" stroke-width="1px">100</text><text x="145" y="0" dx="0em" dy="0.95em" style="text-anchor: middle; visibility: inherit; font-family: &quot;Helvetica Neue&quot;, sans-serif; font-size: 12px; font-weight: 200;" fill="rgb(50, 49, 63)" stroke="none" stroke-width="1px">150</text><text x="181.25" y="0" dx="0em" dy="0.95em" style="text-anchor: middle; visibility: inherit; font-family: &quot;Helvetica Neue&quot;, sans-serif; font-size: 12px; font-weight: 200;" fill="rgb(50, 49, 63)" stroke="none" stroke-width="1px">200</text><text x="217.5" y="0" dx="0em" dy="0.95em" style="text-anchor: middle; visibility: inherit; font-family: &quot;Helvetica Neue&quot;, sans-serif; font-size: 12px; font-weight: 200;" fill="rgb(50, 49, 63)" stroke="none" stroke-width="1px">250</text><text x="253.75" y="0" dx="0em" dy="0.95em" style="text-anchor: middle; visibility: inherit; font-family: &quot;Helvetica Neue&quot;, sans-serif; font-size: 12px; font-weight: 200;" fill="rgb(50, 49, 63)" stroke="none" stroke-width="1px">300</text><text x="290" y="0" dx="0em" dy="0.95em" style="text-anchor: middle; visibility: hidden; font-family: &quot;Helvetica Neue&quot;, sans-serif; font-size: 12px; font-weight: 200;" fill="rgb(50, 49, 63)" stroke="none" stroke-width="1px">350</text></g><line x1="0" y1="0" x2="290" y2="0" fill="rgb(0, 0, 0)" stroke="rgb(204, 204, 204)" stroke-width="1px"></line></g></g></g></g></svg>